<svg width="58" height="58" viewBox="0 0 58 58" fill="none" xmlns="http://www.w3.org/2000/svg">
<path d="M38.6673 38.0866V15.1041C38.6673 13.8223 38.1581 12.5929 37.2517 11.6865C36.3452 10.78 35.1159 10.2708 33.834 10.2708H9.66732C8.38544 10.2708 7.15606 10.78 6.24963 11.6865C5.34321 12.5929 4.83398 13.8223 4.83398 15.1041V36.8541C4.83398 37.4951 5.0886 38.1098 5.54181 38.563C5.99502 39.0162 6.60971 39.2708 7.25065 39.2708H8.96648C9.43757 38.1952 10.2119 37.2802 11.1947 36.6377C12.1776 35.9951 13.3264 35.6529 14.5007 35.6529C15.6749 35.6529 16.8237 35.9951 17.8066 36.6377C18.7894 37.2802 19.5637 38.1952 20.0348 39.2708H37.9665C38.1437 38.8439 38.3773 38.4491 38.6673 38.0866ZM38.6673 38.0866C39.2954 37.2348 40.137 36.5636 41.1073 36.1408C42.0775 35.7181 43.1422 35.5587 44.1937 35.6788C45.2453 35.7989 46.2465 36.1942 47.0965 36.8249C47.9464 37.4556 48.615 38.2992 49.0348 39.2708H53.1673V32.2866C53.1682 30.533 52.6921 28.8121 51.7898 27.3083L48.8173 22.3541L46.6182 18.705C46.4043 18.3442 46.1002 18.0453 45.7358 17.8377C45.3714 17.6301 44.9592 17.5209 44.5398 17.5208H38.6673V38.0866Z" stroke="#111827" stroke-width="3" stroke-linecap="round" stroke-linejoin="round"/>
<path d="M26.584 27.1875H14.5006M26.584 19.9375H14.5006M20.5423 41.6875C20.5434 42.5863 20.3439 43.4739 19.9584 44.2859C19.5729 45.0978 19.0112 45.8134 18.3141 46.3807C17.617 46.948 16.8021 47.3526 15.9288 47.5651C15.0555 47.7775 14.1458 47.7924 13.266 47.6088C12.3862 47.4251 11.5584 47.0474 10.8431 46.5033C10.1277 45.9592 9.54277 45.2624 9.13086 44.4636C8.71895 43.6647 8.49045 42.7841 8.46201 41.8858C8.43357 40.9874 8.60592 40.0941 8.96648 39.2708C9.52281 38.0006 10.4992 36.9604 11.7317 36.3248C12.9642 35.6893 14.3779 35.4971 15.7353 35.7804C17.0928 36.0638 18.3115 36.8056 19.1868 37.8812C20.0621 38.9568 20.5407 40.3008 20.5423 41.6875ZM49.5423 41.6875C49.5434 42.5863 49.3439 43.4739 48.9584 44.2859C48.5729 45.0978 48.0112 45.8134 47.3141 46.3807C46.6169 46.948 45.8021 47.3526 44.9288 47.5651C44.0555 47.7775 43.1458 47.7924 42.266 47.6088C41.3862 47.4251 40.5584 47.0474 39.8431 46.5033C39.1277 45.9592 38.5428 45.2624 38.1309 44.4636C37.7189 43.6647 37.4904 42.7841 37.462 41.8858C37.4336 40.9874 37.6059 40.0941 37.9665 39.2708C38.1437 38.8439 38.3773 38.4492 38.6673 38.0867C39.2954 37.2348 40.137 36.5636 41.1073 36.1408C42.0775 35.7181 43.1422 35.5587 44.1937 35.6788C45.2453 35.7989 46.2465 36.1943 47.0965 36.8249C47.9464 37.4556 48.615 38.2993 49.0348 39.2708C49.3731 40.0321 49.5471 40.8562 49.5423 41.6875Z" stroke="#111827" stroke-width="3" stroke-linecap="round" stroke-linejoin="round"/>
</svg>
