<svg width="28" height="30" viewBox="0 0 28 30" fill="none" xmlns="http://www.w3.org/2000/svg">
<path d="M13.0741 14.3288L0.115234 27.5133C0.260724 28.0142 0.522213 28.4761 0.879713 28.8637C1.23721 29.2514 1.68126 29.5546 2.1779 29.75C2.67455 29.9455 3.21064 30.0281 3.74521 29.9916C4.27977 29.955 4.79866 29.8003 5.26219 29.5391L19.8438 21.4745L13.0741 14.3288Z" fill="#EA4335"/>
<path d="M26.181 12.0872L19.8751 8.58022L12.7773 14.6288L19.9039 21.4553L26.1618 17.9857C26.7161 17.7039 27.1805 17.28 27.5045 16.7601C27.8285 16.2403 27.9998 15.6442 27.9998 15.0365C27.9998 14.4288 27.8285 13.8327 27.5045 13.3128C27.1805 12.7929 26.7161 12.3691 26.1618 12.0872H26.181Z" fill="#FBBC04"/>
<path d="M0.116039 2.49414C0.0379448 2.77548 -0.00107277 3.06569 2.24294e-05 3.35707V26.6504C0.000940763 26.9417 0.0398169 27.2315 0.116039 27.513L13.5194 14.6665L0.116039 2.49414Z" fill="#4285F4"/>
<path d="M13.1709 15.0037L19.8726 8.58032L5.30994 0.47859C4.76204 0.16692 4.13887 0.00178919 3.50389 6.32655e-06C2.73723 -0.00142676 1.99112 0.240643 1.37932 0.689306C0.767516 1.13797 0.323594 1.76861 0.115234 2.48507L13.1709 15.0037Z" fill="#34A853"/>
</svg>
