<svg width="66" height="61" viewBox="0 0 66 61" fill="none" xmlns="http://www.w3.org/2000/svg">
<path fill-rule="evenodd" clip-rule="evenodd" d="M55.3271 40.3816C55.3271 40.5132 55.3032 40.5611 55.2553 40.585C55.1716 40.6089 55.1237 40.6089 55.0519 40.6089C55.004 40.6089 54.9322 40.585 54.8006 40.585C54.681 40.5611 54.5374 40.5371 54.3579 40.4893C54.2143 40.4653 54.1425 40.4653 54.0826 40.4653L53.963 39.3285C54.6092 39.4841 55.028 39.6755 55.2553 39.9986C55.2793 40.0226 55.2793 40.0465 55.2793 40.0704C55.3032 40.1662 55.3271 40.2858 55.3271 40.3816ZM57.505 42.8108C57.4093 42.6672 57.3255 42.5355 57.2777 42.3919C57.2059 42.2244 57.1819 42.0569 57.1819 41.8534V40.3337C57.1819 39.8909 57.1341 39.5559 57.0623 39.3046C57.0144 39.1849 56.9546 39.0653 56.9067 38.9695C56.8349 38.8738 56.7631 38.7661 56.6913 38.7182C56.5836 38.6225 56.5118 38.5746 56.44 38.5268C56.3443 38.4789 56.2725 38.431 56.1648 38.4071C55.9733 38.3592 55.6024 38.2515 55.028 38.1558L53.9869 37.9643C53.592 38.2515 53.2689 38.5507 53.0535 38.7661C52.9219 38.8977 52.8261 39.0174 52.7304 39.1131C52.6466 39.2088 52.5748 39.3046 52.527 39.4123C52.4552 39.5319 52.4073 39.6755 52.3595 39.7952C52.3355 39.8909 52.3116 39.9986 52.3116 40.1183C52.3116 40.1662 52.3355 40.214 52.3355 40.2858C52.3595 40.3576 52.3595 40.4414 52.3834 40.4653C52.4552 40.6807 52.5988 40.7765 52.8022 40.8243C52.9937 40.8483 53.221 40.8961 53.4484 40.944C53.6399 40.9799 53.8672 41.0278 54.0826 41.0517C53.4723 41.2671 53.0176 41.4586 52.7543 41.7338C52.4791 41.9731 52.2757 42.2962 52.156 42.739C52.2039 42.7629 52.2518 42.7629 52.3116 42.7629C52.4552 42.7629 52.5509 42.7868 52.6227 42.7868C52.7065 42.7868 52.7783 42.7868 52.8022 42.8108C52.9458 42.8108 53.0535 42.8347 53.1492 42.8586C53.221 42.8586 53.2928 42.8826 53.3407 42.9065C53.4484 42.9065 53.5441 42.9304 53.6399 42.9544C53.7356 42.9783 53.8433 43.0262 53.963 43.0501C54.0108 43.0022 54.0348 42.9783 54.0826 42.9304C54.1185 42.8826 54.1664 42.8586 54.1903 42.8108C54.3818 42.6193 54.5374 42.4159 54.657 42.2962C54.7049 42.2005 54.7528 42.1526 54.8365 42.0808C54.8844 42.021 54.9322 41.9731 54.9801 41.9252C55.028 41.8774 55.0758 41.8056 55.1476 41.7577C55.2075 41.7098 55.2553 41.662 55.3271 41.5902C55.3271 41.8056 55.3271 41.9731 55.3271 42.1287C55.3511 42.2723 55.3511 42.3919 55.375 42.4877C55.375 42.5116 55.4468 42.715 55.5545 43.0501C55.6981 43.0501 55.8417 43.0262 56.0212 43.0022C56.1887 42.9783 56.3922 42.9544 56.6076 42.9065C56.8349 42.8826 57.0384 42.8586 57.1819 42.8347C57.3255 42.8347 57.4332 42.8108 57.505 42.8108ZM51.7133 41.4346C51.438 41.315 51.2466 41.1474 51.1389 40.944C51.091 40.8483 51.0431 40.7286 50.9713 40.585C50.9235 40.4414 50.8397 40.2619 50.744 40.0704C50.6961 39.9508 50.6722 39.8431 50.6243 39.6995C50.5764 39.5798 50.5286 39.4362 50.4927 39.2567C50.4209 39.0892 50.373 38.8977 50.3251 38.6943C50.2773 38.5028 50.2294 38.2755 50.1815 38.0361C50.0499 38.084 49.9542 38.1319 49.8345 38.1797C49.7029 38.2037 49.5832 38.2515 49.4636 38.2755C49.308 38.3353 49.1644 38.3592 49.0088 38.4071C48.8413 38.431 48.6618 38.4789 48.4943 38.5028L48.0754 39.5319C47.8481 39.6995 47.6806 39.867 47.5011 40.0226C47.3335 40.1662 47.2019 40.3098 47.0822 40.4055C46.9626 40.5371 46.8788 40.6329 46.807 40.7047C46.7352 40.8004 46.6873 40.8483 46.6395 40.8961C46.5916 41.0038 46.5318 41.1714 46.4839 41.4107C46.436 41.662 46.4121 41.8774 46.4121 42.0808C46.436 42.4637 46.7113 42.7868 47.2019 43.0501C47.525 42.9065 47.8002 42.7629 48.0276 42.6432C48.243 42.5355 48.4225 42.4637 48.5661 42.3919C48.219 42.1765 48.0515 41.9252 48.0515 41.6141C48.0754 41.3868 48.1233 41.1235 48.219 40.7765C48.2908 40.4055 48.4464 39.9986 48.6379 39.5319C48.7695 39.8191 48.8892 40.1901 49.0088 40.6329C49.308 41.7816 49.5832 42.4877 49.8106 42.7629C50.026 43.0262 50.4448 43.2057 51.0431 43.2775C51.2107 42.739 51.3662 42.3201 51.4859 42.021C51.5936 41.7338 51.6654 41.5184 51.7133 41.4346ZM43.8393 42.1047C43.8632 42.1765 43.6957 42.2723 43.3726 42.368C43.0256 42.4877 42.7743 42.5355 42.6307 42.5355V40.9201C42.6546 40.944 42.6786 40.9799 42.7264 40.9799C42.7743 40.9799 42.894 40.9201 43.1213 40.8243C43.2171 40.944 43.3247 41.0756 43.3965 41.1953C43.4683 41.315 43.5401 41.4346 43.6119 41.5662C43.7436 41.8056 43.8154 41.9731 43.8393 42.1047ZM43.9829 39.0174L43.8393 40.1183C43.8154 40.1183 43.7196 40.1183 43.5641 40.1422C43.2171 40.238 43.0017 40.2619 42.87 40.2619C42.8461 40.2619 42.7982 40.2619 42.7504 40.2619C42.7504 40.238 42.7264 40.238 42.7025 40.238H42.6786C42.6546 40.238 42.6307 40.214 42.6307 40.1901C42.6307 40.1662 42.6307 40.1183 42.6307 40.0465C42.6307 39.9986 42.6307 39.8909 42.6546 39.7713C42.6546 39.7473 42.6786 39.6995 42.7025 39.6277C42.894 39.3285 43.3487 39.1131 43.9829 39.0174ZM45.7659 42.739C45.718 42.6193 45.6941 42.4637 45.6702 42.3201C45.6462 42.1765 45.6223 42.021 45.5745 41.8774C45.5027 41.5662 45.3471 41.315 45.1556 41.1714C45.0001 41.0517 44.8325 40.9799 44.6291 40.8961C44.4137 40.8243 44.1624 40.7525 43.8393 40.7047C44.1624 40.6329 44.4376 40.585 44.677 40.5611C44.9283 40.5132 45.1556 40.4893 45.3232 40.4414C45.4189 40.4055 45.5027 40.2858 45.5745 40.1183C45.5984 39.9747 45.6223 39.867 45.6223 39.7713C45.6223 39.6995 45.5984 39.5798 45.5745 39.4362C45.5505 39.3883 45.5266 39.3046 45.5027 39.2567C45.4787 39.1849 45.4428 39.1371 45.395 39.0653C45.3471 38.9456 45.1796 38.7661 44.8804 38.5986C44.4376 38.3114 44.1385 38.1079 43.959 37.9643L42.9179 38.1558C42.3555 38.2515 41.9606 38.3592 41.7571 38.4071C41.6853 38.455 41.5896 38.4789 41.5058 38.5268C41.434 38.5746 41.3383 38.6464 41.2665 38.7182C41.087 38.8738 40.9674 39.0653 40.8955 39.3046C40.8238 39.5559 40.7639 39.8909 40.7639 40.3337V41.8534C40.7639 42.0569 40.7161 42.2483 40.6443 42.4159C40.6203 42.4877 40.5964 42.5355 40.5725 42.6193C40.5246 42.6911 40.4767 42.739 40.4528 42.8108C40.5007 42.8108 40.5964 42.8347 40.74 42.8586C40.9195 42.8586 41.087 42.8826 41.3144 42.9065C41.5657 42.9544 41.7571 42.9783 41.9366 43.0022C42.1042 43.0262 42.2597 43.0501 42.3794 43.0501C42.5709 43.0022 42.894 42.9544 43.3487 42.9065C43.588 42.9065 43.8632 42.8826 44.1624 42.8586C44.4616 42.8347 44.7847 42.8108 45.1317 42.8108C45.2992 42.7868 45.4189 42.7629 45.5027 42.7629C45.5505 42.7629 45.5984 42.7629 45.6223 42.7629C45.6702 42.739 45.718 42.739 45.7659 42.739ZM39.1365 42.9304L39.1843 41.4346L39.2561 40.4414L39.2801 40.214L39.304 39.6755L39.3279 39.5319L39.3878 39.1131L39.4835 38.1079C38.4185 38.4789 37.4971 38.6704 36.7551 38.7422L36.5158 39.4362C36.6355 39.4601 36.7791 39.4841 36.9346 39.508C37.1022 39.5319 37.2817 39.508 37.4492 39.4601L37.3295 40.8961C37.2817 41.3628 37.2338 41.7816 37.174 42.1526C37.1261 42.4877 37.0782 42.7868 37.0304 43.0262C37.3295 43.0262 37.6526 43.0262 37.9997 43.0022C38.3467 43.0022 38.7176 42.9783 39.1365 42.9304ZM39.6032 36.5643C39.6271 36.2531 39.5553 35.9779 39.3638 35.7625C39.1843 35.5591 38.933 35.4394 38.6459 35.3915C38.3467 35.3676 38.0954 35.4394 37.868 35.6428C37.6526 35.8343 37.521 36.0497 37.4731 36.3489C37.4492 36.6121 37.5449 36.8873 37.7244 37.1027C37.892 37.3301 38.1433 37.4498 38.4424 37.4976C38.7176 37.5216 38.9809 37.4498 39.2083 37.2583C39.4596 37.0549 39.5792 36.8395 39.6032 36.5643ZM34.2302 40.944C34.2302 41.0038 34.2302 41.0517 34.2302 41.0996C34.2302 41.1474 34.2302 41.1953 34.2302 41.2432C34.2063 41.291 34.2063 41.3389 34.2063 41.3868C34.2063 41.4346 34.2063 41.4825 34.2063 41.5423C33.9669 41.4586 33.7635 41.4107 33.584 41.3628C33.4165 41.315 33.2729 41.2671 33.1173 41.2192V40.4893C33.1173 40.4414 33.1173 40.3816 33.1173 40.3337C33.1173 40.2619 33.1173 40.214 33.1173 40.1422C33.0934 40.0944 33.0934 40.0465 33.0934 39.9747C33.0695 39.9268 33.0695 39.867 33.0695 39.8191C33.3208 39.6037 33.5362 39.3883 33.7875 39.161C34.0866 39.4362 34.2302 40.0465 34.2302 40.944ZM36.2167 39.8909C36.2167 39.2328 36.0372 38.79 35.7141 38.5028C35.4269 38.2276 34.9961 38.0361 34.4576 37.8925C34.3858 37.9883 34.302 38.0601 34.2063 38.1558C34.1105 38.2276 34.0148 38.3353 33.8832 38.431C33.6678 38.5986 33.3926 38.79 33.0695 38.9935C33.0455 38.8499 33.0455 38.6943 33.0216 38.5268C32.9977 38.3592 32.9737 38.1797 32.9498 37.9643C32.7224 38.0361 32.4472 38.1079 32.148 38.1558C32.0762 38.1797 31.9805 38.1797 31.8608 38.2037C31.7292 38.2276 31.6096 38.2515 31.466 38.2755C31.3583 38.3114 31.2625 38.3114 31.1668 38.3353C31.0591 38.3353 30.9634 38.3592 30.8676 38.3832C31.1429 39.0413 31.2865 40.214 31.2865 41.8774L31.2625 43.0022C31.2625 43.074 31.2625 43.1817 31.2625 43.3014C31.2386 43.4211 31.2386 43.5647 31.2147 43.7442C31.1907 43.9117 31.1907 44.0553 31.1668 44.2108C31.1668 44.3544 31.1668 44.4502 31.1668 44.5698L31.0352 45.7186L32.6746 45.8742C32.7224 45.4314 32.8182 44.9408 32.9498 44.3784C33.0695 43.816 33.2131 43.1578 33.3926 42.4159L33.8114 42.5954L34.5772 42.9304C35.6662 42.0808 36.2167 41.0517 36.2167 39.8909ZM30.6163 41.8295C30.2932 41.291 30.03 40.9201 29.7547 40.7047C29.4795 40.5132 29.1325 40.4055 28.7615 40.4055H28.6419C28.7615 40.1662 28.8812 39.9747 29.0128 39.8191C29.1325 39.6755 29.2282 39.5559 29.3359 39.4601C29.4077 39.3524 29.4556 39.2806 29.5034 39.2328C29.5274 39.161 29.5752 39.0174 29.659 38.79C29.6829 38.7182 29.6829 38.6464 29.7069 38.5986C29.7069 38.5507 29.7308 38.4789 29.7308 38.431C29.7547 38.3592 29.7547 38.3114 29.7547 38.2276C29.7547 38.1558 29.7547 38.084 29.7547 38.0361L27.9717 38.3592C27.9957 38.5028 28.0196 38.6704 28.0196 38.79C28.0196 39.4841 27.7204 40.3576 27.1819 41.4107V40.0465C27.1819 39.4841 27.2059 38.9456 27.2059 38.4789C27.2298 37.9883 27.2537 37.5694 27.3016 37.1745C27.3973 36.3967 27.529 35.8104 27.6965 35.3915C27.4213 35.4155 27.0982 35.4873 26.7272 35.5591C26.3563 35.6428 25.9374 35.7386 25.4707 35.8822C25.4229 36.2053 25.3989 36.4446 25.375 36.66C25.3511 36.8395 25.3271 36.9831 25.3271 37.1745C25.3271 37.354 25.3271 37.5216 25.3271 37.713C25.3271 37.737 25.3152 37.8925 25.2912 38.1797C25.2912 38.455 25.2912 38.8738 25.2912 39.4362C25.2673 39.6037 25.2673 39.7952 25.2673 40.0226C25.2673 40.214 25.2673 40.4055 25.2673 40.6329L25.2912 42.3201L25.2673 43.2535L27.0503 42.8826C27.0742 42.7868 27.1341 42.6432 27.2059 42.4637C27.3016 42.2723 27.4452 41.997 27.6247 41.6859C28.4863 42.1287 29.0607 42.6672 29.3359 43.3014C29.5034 43.098 29.7069 42.9065 29.8983 42.6672C29.9701 42.6193 30.03 42.5355 30.0778 42.4877C30.1257 42.4159 30.1975 42.368 30.2454 42.2962C30.3172 42.2244 30.377 42.1526 30.4488 42.0808C30.4967 41.997 30.5685 41.9252 30.6163 41.8295ZM22.7184 40.7525C22.7184 41.1235 22.6706 41.4825 22.5988 41.9013C21.5577 41.6859 21.0431 41.0517 21.0431 40.0704C21.0671 39.6995 21.1628 39.3285 21.3543 39.0174C21.5338 39.0653 21.7013 39.1131 21.8569 39.1849C22.0244 39.2567 22.18 39.3883 22.3236 39.508C22.5988 39.7713 22.7184 40.1901 22.7184 40.7525ZM24.5015 40.238C24.5015 39.8191 24.4057 39.4841 24.2262 39.1849C24.0348 38.8977 23.8074 38.6943 23.5082 38.6225L23.8313 38.1079C23.7835 38.1079 23.7117 38.1079 23.6399 38.1079C23.592 38.1079 23.5082 38.1079 23.4125 38.1079C23.3407 38.1079 23.245 38.1319 23.1732 38.1319C23.0894 38.1319 23.0176 38.1319 22.9458 38.1319C22.7184 38.1319 22.4791 38.1079 22.2039 38.1079C21.9287 38.084 21.6295 38.0601 21.3064 38.0361C19.8944 38.9456 19.1764 39.9268 19.1764 40.9201C19.2123 41.2671 19.2841 41.5423 19.4277 41.8056C19.4995 41.9252 19.6072 42.0569 19.7029 42.1765C19.8226 42.2723 19.9542 42.3919 20.1217 42.4877C20.744 42.9065 21.4141 43.1339 22.18 43.1339C22.2039 43.098 22.2278 43.074 22.2518 43.074C22.2757 43.0501 22.2996 43.0262 22.3475 43.0022C22.3714 42.9783 22.4193 42.9544 22.4552 42.9304C22.527 42.8586 22.5988 42.8347 22.6466 42.7868C22.7184 42.7629 22.7663 42.739 22.7902 42.715C22.9219 42.6672 23.0176 42.5954 23.1133 42.5355C23.221 42.4877 23.2928 42.4398 23.3886 42.3919C23.4604 42.368 23.5441 42.3201 23.592 42.2723C23.6638 42.2244 23.7117 42.1765 23.7595 42.1287C23.939 41.9731 24.1066 41.7338 24.2861 41.3628C24.4297 41.0038 24.5015 40.6329 24.5015 40.238ZM20.4209 43.6484C20.3491 43.6484 20.2653 43.6724 20.2174 43.6724C20.1696 43.6724 20.1217 43.6724 20.0738 43.6724H19.8226C19.308 43.6724 18.7815 43.5168 18.2669 43.2057C18.0395 43.074 17.8481 42.9304 17.6686 42.7868C17.5729 42.6672 17.4532 42.5595 17.3455 42.4398C17.2498 42.3201 17.154 42.2005 17.0583 42.0808C16.9506 41.9013 16.8788 41.7338 16.7831 41.5184C16.7113 41.315 16.6275 41.1235 16.5796 40.9201C16.5078 40.7047 16.46 40.4893 16.4121 40.2858C16.3642 40.0704 16.3044 39.867 16.2565 39.6755C16.2326 39.4841 16.1847 39.2806 16.1608 39.0892C16.1129 38.9217 16.089 38.7182 16.0651 38.5507C16.0411 38.5028 16.0172 38.4071 15.9933 38.2276C15.9574 38.0601 15.9334 37.8207 15.8856 37.4976C15.8616 37.378 15.8377 37.2224 15.8138 37.0788C15.7898 36.9352 15.7659 36.7438 15.742 36.5403C15.718 36.3728 15.6941 36.2053 15.6223 36.0497C15.5625 35.8822 15.4907 35.7386 15.3949 35.583C15.0958 35.3676 14.8445 35.2479 14.6291 35.2001L14.4975 35.224C13.935 35.3915 13.1931 35.8343 12.2956 36.5403C11.4101 37.2583 10.5605 38.2276 9.79463 39.5319L11.0631 35.2479C10.8118 35.3197 10.5126 35.3915 10.1177 35.5351C9.92626 35.6069 9.6989 35.6907 9.4476 35.7864C9.20827 35.8822 8.93304 36.0018 8.63388 36.1215C8.51422 36.1454 8.41848 36.2053 8.31079 36.2531C8.21505 36.301 8.09539 36.3489 7.96376 36.3967C7.91589 36.4207 7.84409 36.4446 7.72443 36.5164C7.5928 36.5643 7.4492 36.6361 7.24577 36.7198C7.10217 36.7916 6.9825 36.8395 6.85087 36.8873C6.70727 36.9352 6.57564 37.007 6.45598 37.0549L6.06108 38.3353L8.58601 37.4976C8.44242 37.737 8.31079 37.9883 8.16719 38.3114C8.01162 38.5986 7.86802 38.9456 7.70049 39.3046C7.5928 39.6037 7.47313 39.9268 7.35347 40.214C7.24577 40.5371 7.1261 40.8722 7.03037 41.2192C6.92267 41.4346 6.87481 41.6859 6.80301 41.8534C6.75514 42.021 6.70727 42.2005 6.68334 42.3201L6.45598 43.2296C6.40811 43.445 6.36025 43.6724 6.33631 43.9117L9.00484 42.8826C9.13647 42.6432 9.28007 42.3441 9.42367 42.0569C9.60317 41.7577 9.7707 41.4107 9.97413 41.0756C10.2254 40.6568 10.4408 40.2619 10.6921 39.8909C10.9075 39.5319 11.1588 39.161 11.4101 38.814C11.9965 37.9883 12.5469 37.354 13.0136 36.9113C13.1692 37.1027 13.3128 37.4019 13.4324 37.7968C13.4683 37.9404 13.5162 38.1079 13.5401 38.2755C13.5641 38.4789 13.588 38.6943 13.6359 38.9456C13.6837 39.2806 13.7077 39.5319 13.7316 39.7234C13.7555 39.8909 13.7795 40.0226 13.7795 40.0465C13.8154 40.1662 13.8393 40.2858 13.8393 40.3816C13.8632 40.5132 13.8872 40.6089 13.9111 40.7286C13.959 41.0038 14.0308 41.2432 14.0786 41.4825C14.1504 41.7338 14.2342 41.9492 14.2821 42.1526C14.4017 42.4637 14.4975 42.715 14.6291 42.9304C14.7248 43.1578 14.8445 43.3253 14.9761 43.4689C15.5625 44.3544 16.3882 44.7972 17.3455 44.7972C18.4105 44.7972 19.4277 44.4023 20.4209 43.6484ZM13.3367 50.6488C13.3367 50.3018 13.2649 50.0625 13.1692 49.859C13.0615 49.6676 12.894 49.524 12.6187 49.3923C12.523 49.3684 12.4512 49.3205 12.3794 49.2966C12.2956 49.2727 12.2238 49.2487 12.152 49.2487C11.9725 49.2009 11.805 49.1769 11.6016 49.1769C11.458 49.3205 11.3383 49.4641 11.2067 49.5958C11.087 49.7154 10.9913 49.8351 10.8836 49.9308C10.7639 49.5958 10.2972 49.3445 9.47153 49.1769L8.78944 49.9308L8.75355 49.1769C8.46635 49.2727 8.19112 49.3445 7.91589 49.4163C7.66459 49.4641 7.4492 49.524 7.24577 49.5718V50.1343C7.24577 50.7206 7.24577 51.2591 7.22183 51.7737C7.1979 52.3122 7.17397 52.8028 7.1261 53.3173C7.24577 53.2695 7.47313 53.2336 7.74836 53.2097C8.03556 53.1618 8.41848 53.1378 8.86124 53.09L8.78944 50.7446L9.07664 50.23C9.39974 50.5651 9.57923 51.4266 9.57923 52.8267V53.3652C9.6271 53.3413 9.6989 53.3173 9.7707 53.2934C9.8784 53.2695 9.97413 53.2336 10.0938 53.2097C10.3212 53.1618 10.6443 53.09 11.0152 53.0421C11.0152 53.0182 11.0152 52.7549 11.0391 52.2643C11.0391 52.1566 11.0391 52.0848 11.0391 51.9891C11.0391 51.9173 11.0391 51.8215 11.0391 51.7258L11.0152 50.7446C11.0391 50.7206 11.0631 50.6728 11.1109 50.5651C11.1349 50.4693 11.2067 50.3257 11.2545 50.1582C11.3862 50.2539 11.458 50.3497 11.5298 50.4454C11.6016 50.5411 11.6614 50.6488 11.7093 50.7685C11.805 50.9599 11.8529 51.283 11.8529 51.7019L11.805 52.384V52.4797C11.805 52.731 11.805 52.9464 11.7811 53.1378C11.7571 53.2336 11.7571 53.3413 11.7571 53.4131C11.7332 53.5088 11.7332 53.5806 11.7093 53.6763C12.3794 53.3173 12.894 52.9703 13.2649 52.6472C13.2649 52.5994 13.2649 52.5515 13.2649 52.5036C13.241 52.4797 13.241 52.4318 13.241 52.36C13.241 52.3122 13.241 52.2643 13.241 52.2404C13.241 52.1805 13.241 52.1566 13.241 52.1566L13.2649 51.5942C13.3128 51.2112 13.3367 50.8881 13.3367 50.6488ZM18.0635 53.0182C18.0395 52.9225 18.0395 52.8267 18.0156 52.731C18.0156 52.6233 18.0156 52.5515 18.0156 52.4558L18.0395 51.1035C18.0395 50.7446 17.9917 50.4693 17.9438 50.2779C17.9199 50.1582 17.872 50.0864 17.8241 49.9787C17.7763 49.9069 17.6925 49.8351 17.6447 49.7872C17.5729 49.7394 17.5011 49.6915 17.4532 49.6436C17.3694 49.5958 17.2976 49.5718 17.2258 49.5479C17.0822 49.4881 16.7591 49.4163 16.3044 49.3445L15.4667 49.1769C14.8445 49.6676 14.4496 50.0625 14.2821 50.3497C14.0786 50.6728 14.0068 51.0557 14.0068 51.4984C14.0068 51.642 14.0068 51.8215 14.0308 51.9891C14.0308 52.1566 14.0547 52.3361 14.0786 52.5276C14.0786 52.6233 14.1026 52.731 14.1265 52.8746C14.1504 52.9225 14.1504 52.9464 14.1504 52.9943C14.1504 53.0182 14.1504 53.0421 14.1504 53.09C14.2581 53.1378 14.3778 53.1857 14.4975 53.2097C14.653 53.2695 14.7966 53.3173 15.0001 53.3652C15.2394 53.1139 15.4428 52.8985 15.6223 52.731C15.8138 52.5276 15.9574 52.36 16.089 52.2164C16.3642 51.9412 16.5078 51.7497 16.5557 51.6779C16.5557 52.4318 16.5318 52.9943 16.46 53.437C16.8549 53.3173 17.178 53.2097 17.4293 53.1618C17.6925 53.09 17.8959 53.0421 18.0635 53.0182ZM16.4839 50.8163C16.4121 50.936 16.3403 51.0317 16.2565 51.1634C16.1847 51.283 16.1369 51.3788 16.0651 51.4745C15.9574 51.5942 15.8856 51.7258 15.7898 51.8215C15.718 51.9173 15.6462 52.013 15.5385 52.1087L15.4428 50.3018C15.9574 50.3975 16.3044 50.5651 16.4839 50.8163ZM35.2713 49.0812C35.2713 48.5188 35.1277 47.8965 34.8525 47.2144C34.6012 46.5802 34.2302 46.0417 33.7396 45.6708C33.1413 45.7426 32.2079 46.2332 30.9873 47.1426C31.2147 48.6624 31.813 49.6436 32.8182 50.0864C32.8421 50.1821 32.8421 50.2779 32.866 50.3497C32.866 50.4215 32.9019 50.4933 32.9019 50.5651C32.9259 50.6488 32.9259 50.6967 32.9259 50.7685C32.9259 50.7924 32.9259 50.8403 32.9259 50.8881C32.9259 51.6779 32.5788 52.5036 31.9087 53.4131C31.5617 53.8558 31.0591 54.1909 30.4727 54.4183C29.8744 54.6576 29.2282 54.7533 28.5342 54.7533C28.5701 54.6815 28.594 54.5858 28.6179 54.4422C28.6419 54.3106 28.6658 54.167 28.6897 54.0234C28.7137 53.9037 28.7376 53.7481 28.7855 53.5806C28.8094 53.4131 28.8333 53.2097 28.8812 52.9703C28.9051 52.8028 28.965 52.6233 28.9889 52.4318C29.0128 52.2404 29.0607 52.0369 29.0846 51.8455C29.1564 51.4266 29.2043 50.9839 29.312 50.4933C29.3838 50.0026 29.4556 49.4641 29.5274 48.8778C29.5992 48.3393 29.659 47.8487 29.7069 47.4179C29.7547 46.9751 29.8026 46.5563 29.8265 46.1853C29.8505 45.9939 29.8744 45.7665 29.8983 45.599C29.9223 45.4075 29.9462 45.2041 29.9462 45.0126C29.8744 45.0605 29.7787 45.0844 29.7069 45.1083C29.6231 45.1562 29.5513 45.1801 29.4556 45.228C29.2282 45.3357 29.0368 45.4075 28.8573 45.4793C28.6897 45.5511 28.5342 45.6229 28.4145 45.6947C27.9957 45.8503 27.6965 45.9699 27.529 46.0178C27.6486 46.2092 27.7444 46.4366 27.8521 46.6759C27.9239 46.9272 27.9957 47.1905 28.0675 47.5136C27.9239 47.4657 27.7444 47.4179 27.5529 47.3939C27.3734 47.358 27.2059 47.358 27.0025 47.358C26.811 47.358 26.6076 47.3939 26.3802 47.3939C26.1887 47.4179 25.9374 47.4657 25.722 47.5136C25.5186 47.5375 25.3511 47.5854 25.1476 47.6333C24.9801 47.6811 24.8006 47.7529 24.6331 47.8008C24.3339 47.9324 24.1305 48.0282 24.0108 48.1C23.2928 48.6384 22.7424 49.2009 22.4193 49.859C22.1082 50.4693 21.9287 51.2591 21.9287 52.1327C21.9287 53.5088 22.4193 54.5619 23.3886 55.2918C23.8553 55.6628 24.4536 55.938 25.1955 56.1055C25.8656 56.2491 26.6076 56.297 27.4452 56.297C27.4213 56.3927 27.3973 56.5004 27.3734 56.6201C27.3495 56.7398 27.3016 56.8594 27.2537 57.0389C27.2298 57.1107 27.2059 57.1586 27.1819 57.2304C27.158 57.3022 27.1341 57.3979 27.0982 57.4697L27.876 57.5176L28.1153 56.1773C28.3666 56.1055 28.5701 56.0577 28.7615 56.0098C28.941 55.9859 29.0846 55.938 29.2043 55.8782C29.7069 55.7585 30.1018 55.6149 30.377 55.4713C31.7053 54.8012 32.8421 53.8798 33.8114 52.6951C34.7807 51.5463 35.2713 50.3257 35.2713 49.0812ZM28.3188 50.4454C28.3188 50.7206 28.3188 51.0078 28.2948 51.307C28.2948 51.5702 28.2709 51.8694 28.247 52.1327C28.1871 52.4318 28.1632 52.6951 28.1153 52.9464C28.0914 53.2097 28.0675 53.437 28.0196 53.6763C27.9717 53.8319 27.9478 53.9994 27.8999 54.167C27.876 54.3106 27.8162 54.4901 27.7922 54.6576C27.3255 54.5619 26.9067 54.3943 26.5597 54.2388C26.1648 54.0712 25.8178 53.8558 25.5186 53.6045C24.5733 52.8267 24.1305 51.8215 24.1305 50.601C24.1305 49.9308 24.2861 49.3923 24.5733 48.9496C24.7527 48.7102 25.028 48.4949 25.375 48.2914C25.8656 48.0282 26.3563 47.8726 26.8828 47.8726C27.0982 47.8726 27.3255 47.8965 27.529 47.9803C27.6247 48.0042 27.7204 48.0282 27.8521 48.0521C27.9478 48.1 28.0435 48.1478 28.1632 48.1957C28.223 48.5427 28.2709 48.9017 28.2948 49.2727C28.3188 49.6676 28.3188 50.0266 28.3188 50.4454ZM40.74 53.1618C40.7161 53.0182 40.7161 52.8985 40.6921 52.7789C40.6921 52.6712 40.6921 52.5515 40.6921 52.4558L40.7161 50.7685C40.7161 50.3257 40.6682 49.9787 40.5964 49.7394C40.5725 49.6197 40.5007 49.4881 40.4528 49.3923C40.369 49.2966 40.2972 49.2248 40.2254 49.153C40.1536 49.0812 40.0459 49.0094 39.9741 48.9496C39.9023 48.9017 39.8066 48.8778 39.7348 48.8299C39.5314 48.782 39.1365 48.7102 38.5621 48.5906L37.521 48.3872C36.7791 49.0094 36.2884 49.4881 36.0611 49.859C35.8457 50.2539 35.7141 50.7206 35.7141 51.2591C35.7141 51.4506 35.738 51.642 35.738 51.8694C35.7739 52.0848 35.7978 52.3122 35.8218 52.5515C35.8218 52.6472 35.8457 52.7789 35.8936 52.9703C35.8936 53.0182 35.9175 53.0661 35.9175 53.1139C35.9175 53.1378 35.9175 53.1857 35.9175 53.2336C36.0372 53.2934 36.1927 53.3413 36.3363 53.4131C36.5158 53.4609 36.7073 53.5088 36.9586 53.5567C37.2577 53.2695 37.4971 52.9943 37.7244 52.7789C37.9757 52.5276 38.1433 52.3361 38.3228 52.1566C38.61 51.7976 38.8134 51.5702 38.8852 51.4984C38.8852 52.4079 38.8373 53.1139 38.7655 53.6524C39.2561 53.5088 39.651 53.4131 39.9741 53.3173C40.2972 53.2336 40.5485 53.1857 40.74 53.1618ZM38.7894 50.4215C38.7176 50.5651 38.61 50.7206 38.5382 50.8403C38.4424 50.9839 38.3467 51.1035 38.2629 51.2591C38.1433 51.4027 38.0475 51.5224 37.9518 51.6779C37.8441 51.7976 37.7484 51.9173 37.6287 52.0369L37.4971 49.7872C38.1433 49.9069 38.586 50.1343 38.7894 50.4215ZM46.0172 50.1343C46.0172 49.6915 45.8975 49.3205 45.6702 49.0573C45.4189 48.7342 45.1317 48.5666 44.7847 48.4949C44.6052 48.4111 44.3539 48.3872 44.0906 48.3632C43.8154 48.3393 43.4683 48.3154 43.0974 48.3154C42.8461 48.5188 42.6068 48.6863 42.3794 48.8778C42.1281 49.0812 41.9127 49.2727 41.6853 49.4641C41.6614 49.5958 41.6614 49.7633 41.6614 49.9548C41.6614 50.1582 41.6375 50.3975 41.6375 50.6967C41.6135 50.8163 41.6135 50.9121 41.6135 51.0317C41.6135 51.1035 41.6135 51.2112 41.6135 51.283C41.6135 51.7497 41.6614 52.1087 41.7571 52.4079C41.8888 52.6712 42.0802 52.8985 42.3555 53.1139C42.523 53.2097 42.7025 53.2934 42.87 53.3413C43.0735 53.3891 43.2888 53.4131 43.5401 53.4131C44.2103 53.3891 44.677 53.2336 45.0001 52.9703C45.3471 52.6712 45.6223 52.2404 45.8497 51.5942L45.8138 51.5702C45.5266 51.9651 45.2274 52.1327 44.9043 52.1327C44.7847 52.1327 44.677 52.1327 44.5573 52.1087C44.4616 52.0848 44.3299 52.0609 44.2103 52.013C43.959 51.9412 43.7914 51.8215 43.6957 51.7019C43.5641 51.5702 43.5162 51.4266 43.5162 51.2352C43.5162 50.9839 43.5401 50.4933 43.6119 49.8112C43.9829 49.9069 44.2103 50.1582 44.306 50.5651C44.5812 50.4693 44.8565 50.3975 45.1556 50.3257C45.4189 50.2539 45.718 50.1821 46.0172 50.1343ZM51.6175 53.1618C51.5936 53.0182 51.5936 52.8985 51.5577 52.7789C51.5577 52.6712 51.5577 52.5515 51.5577 52.4558L51.5936 50.7685C51.5936 50.3257 51.5338 49.9787 51.462 49.7394C51.438 49.6197 51.3662 49.4881 51.3184 49.3923C51.2466 49.2966 51.1628 49.2248 51.091 49.153C51.0192 49.0812 50.9235 49.0094 50.8397 48.9496C50.7679 48.9017 50.6722 48.8778 50.6004 48.8299C50.3969 48.782 50.0021 48.7102 49.4396 48.5906L48.3985 48.3872C47.6566 49.0094 47.154 49.4881 46.9386 49.859C46.7113 50.2539 46.5916 50.7206 46.5916 51.2591C46.5916 51.4506 46.6155 51.642 46.6155 51.8694C46.6395 52.0848 46.6634 52.3122 46.6873 52.5515C46.6873 52.6472 46.7113 52.7789 46.7591 52.9703C46.7591 53.0182 46.7831 53.0661 46.7831 53.1139C46.7831 53.1378 46.7831 53.1857 46.7831 53.2336C46.9027 53.2934 47.0583 53.3413 47.2019 53.4131C47.3814 53.4609 47.5729 53.5088 47.8242 53.5567C48.1233 53.2695 48.3746 52.9943 48.59 52.7789C48.8413 52.5276 49.0088 52.3361 49.1883 52.1566C49.4875 51.7976 49.679 51.5702 49.7508 51.4984C49.7508 52.4079 49.7029 53.1139 49.6311 53.6524C50.1217 53.5088 50.5286 53.4131 50.8397 53.3173C51.1628 53.2336 51.4141 53.1857 51.6175 53.1618ZM49.655 50.4215C49.5832 50.5651 49.4875 50.7206 49.4037 50.8403C49.308 50.9839 49.2123 51.1035 49.1405 51.2591C49.0088 51.4027 48.9131 51.5224 48.8174 51.6779C48.7216 51.7976 48.6139 51.9173 48.4943 52.0369L48.3746 49.7872C49.0088 49.9069 49.4636 50.1343 49.655 50.4215ZM57.2777 50.3497C57.2777 49.6915 57.0144 49.2009 56.5118 48.8778C56.0212 48.5666 55.1716 48.4111 54.0348 48.4111C53.9869 48.4709 53.963 48.5427 53.9151 48.5906C53.8672 48.6624 53.8194 48.7102 53.7356 48.806C53.6877 48.8778 53.6159 48.9496 53.5441 49.0573C53.4723 49.153 53.3646 49.2727 53.245 49.3684C53.1014 49.5958 52.9458 49.7633 52.8261 49.9308C52.7304 50.0864 52.6227 50.23 52.5748 50.3497C52.4313 50.6249 52.3595 50.9839 52.3595 51.4266C52.3595 51.5224 52.3595 51.5942 52.3595 51.7019C52.3595 51.7976 52.3834 51.8933 52.3834 51.9891C52.4073 52.0848 52.4313 52.1805 52.4552 52.2882C52.4552 52.384 52.4791 52.5036 52.5031 52.5994L52.5988 52.9943C53.0535 53.2097 53.4245 53.3413 53.7356 53.3652C53.8194 53.2336 53.939 53.09 54.1185 52.9464C54.2621 52.8507 54.3818 52.731 54.4895 52.6233C54.5852 52.5276 54.681 52.4318 54.7767 52.3361C54.9801 52.1327 55.1476 51.9412 55.2793 51.7737C55.2793 51.8455 55.3032 51.9173 55.3032 52.013C55.3032 52.1087 55.3032 52.2164 55.3032 52.3361C55.3032 52.4318 55.3032 52.5754 55.3032 52.731C55.3032 52.8746 55.3032 53.0661 55.3032 53.2695L55.3511 54.7533C54.3579 54.6337 53.7117 54.3106 53.4245 53.808L52.5031 54.6815L52.5988 55.8542C53.0774 56.297 53.7356 56.5004 54.6092 56.5004C54.8844 56.5004 55.0998 56.4765 55.2553 56.3927C55.375 56.3209 55.6024 56.1534 55.8896 55.8542C56.0451 55.7106 56.1887 55.567 56.3204 55.4235C56.44 55.2679 56.5358 55.1004 56.6435 54.9568C56.8349 54.6337 56.9307 54.3704 56.9905 54.167C57.0144 54.0234 57.0384 53.8558 57.0623 53.7003C57.0623 53.6285 57.0623 53.5327 57.0623 53.437C57.0623 53.3413 57.0862 53.2336 57.0862 53.1139L57.2059 51.5224C57.2298 51.2591 57.2537 51.0317 57.2537 50.8642C57.2777 50.6728 57.2777 50.4933 57.2777 50.3497ZM55.4229 50.2779C55.3989 50.3497 55.3511 50.4454 55.2553 50.6249C55.1476 50.7924 55.028 50.9839 54.8844 51.2352C54.5613 51.7497 54.31 52.0369 54.1664 52.1327V49.5958C54.5374 49.6676 54.9562 49.883 55.4229 50.2779ZM1.03516 50.4454C7.35347 54.6576 17.525 58.1638 25.004 58.2116C31.3583 58.2595 49.8824 48.3154 53.592 58.3313C47.2857 51.5702 31.9805 61.1913 25.2194 60.9759C14.7488 61.1913 7.03037 55.9021 1.03516 50.4454Z" fill="#102A83"/>
<path fill-rule="evenodd" clip-rule="evenodd" d="M1.03516 39.4124C7.35347 35.2242 17.525 30.9641 25.004 30.9162C33.9909 30.8444 44.7607 36.9114 54.4297 36.7678C60.1018 36.5285 64.4336 35.2002 65.7978 31.5265C63.5481 33.9318 60.8916 35.1284 56.2366 35.3438C49.3798 35.6669 34.7567 28.6905 27.7204 28.8819C13.2649 28.6905 7.03037 33.9318 1.03516 39.4124Z" fill="#E30016"/>
<path fill-rule="evenodd" clip-rule="evenodd" d="M1.03516 39.4124C7.35347 35.2242 17.525 30.9641 25.004 30.9162C33.9909 30.8444 44.7607 36.9114 54.4297 36.7678C60.1018 36.5285 64.4336 35.2002 65.7978 31.5265C63.5481 33.9318 60.8916 35.1284 56.2366 35.3438C49.3798 35.6669 34.7567 28.6905 27.7204 28.8819C13.2649 28.6905 7.03037 33.9318 1.03516 39.4124Z" stroke="#E30016" stroke-width="0.302362"/>
<path fill-rule="evenodd" clip-rule="evenodd" d="M36.3366 19.0335C34.41 13.5529 33.9672 7.55765 34.8288 1.16754C37.3777 6.38493 40.6445 11.6263 44.3422 16.8317L38.4905 15.4675L36.3366 19.0335Z" fill="#E30016"/>
<path fill-rule="evenodd" clip-rule="evenodd" d="M36.3366 19.0335C34.41 13.5529 33.9672 7.55765 34.8288 1.16754C37.3777 6.38493 40.6445 11.6263 44.3422 16.8317L38.4905 15.4675L36.3366 19.0335Z" stroke="#E30016" stroke-width="0.302362"/>
<path fill-rule="evenodd" clip-rule="evenodd" d="M29.433 18.2796L34.9974 3.86002L34.6264 3.74036L29.0859 18.136L29.433 18.2796Z" fill="#E30016"/>
<path fill-rule="evenodd" clip-rule="evenodd" d="M29.433 18.2796L34.9974 3.86002L34.6264 3.74036L29.0859 18.136L29.433 18.2796Z" stroke="#E30016" stroke-width="0.302362"/>
<path fill-rule="evenodd" clip-rule="evenodd" d="M32.7715 19.4044L42.8951 31.5026H44.379L36.517 22.0969L38.9342 17.7172C41.3156 22.5875 43.6969 27.4818 46.0423 32.3522C53.0547 35.2959 58.4157 34.8771 62.7835 32.3522C56.4412 28.9058 51.5589 23.6645 48.8186 18.2796L48.0527 18.1121V15.0726H46.8082V13.2417H45.0491V16.4966H45.7432V17.6454L38.7188 16.1735L35.7751 21.2234L33.645 18.6984L32.7715 19.4044ZM40.3702 17.3223C40.6933 18.0163 40.9207 18.6984 41.1959 19.3805C41.3634 19.8472 41.5669 20.3618 41.9139 20.7088C42.4284 21.1875 43.1704 21.2951 43.8644 21.2951H44.1875V21.9294H43.8644C40.7172 21.9294 40.8249 19.8711 39.7599 17.5975L39.6283 17.2983L40.2266 17.0351L40.3702 17.3223ZM43.7687 17.9804C44.0679 18.6745 44.2833 19.3566 44.5585 20.0626C44.726 20.5054 44.9534 21.0199 45.3004 21.3669C45.791 21.8815 46.5689 21.9533 47.2509 21.9533H47.574V22.6115H47.2509C44.1157 22.6115 44.2115 20.5532 43.1464 18.2557L43.0268 17.9565L43.6131 17.6932L43.7687 17.9804ZM47.3347 18.6745C47.6578 19.3326 47.8732 20.0387 48.1484 20.7327C48.316 21.1635 48.5194 21.6781 48.8664 22.0251C49.381 22.5397 50.1588 22.6115 50.817 22.6115H51.164V23.2696H50.817C47.6817 23.2696 47.7775 21.2234 46.7364 18.9138L46.6167 18.6266L47.2031 18.3514L47.3347 18.6745ZM51.0683 23.7842C51.3674 24.5022 51.5948 25.1843 51.858 25.8664C52.0375 26.333 52.229 26.8476 52.576 27.1946C53.1026 27.7092 53.8684 27.781 54.5385 27.781H54.8856V28.4152H54.5385C51.3913 28.4152 51.511 26.357 50.446 24.0833L50.3263 23.7602L50.9247 23.497L51.0683 23.7842ZM47.1791 23.2696C47.4783 23.9876 47.7296 24.6697 47.9689 25.3757C48.1484 25.8185 48.3758 26.333 48.7228 26.6801C49.2134 27.1946 49.9793 27.2664 50.6734 27.2664H50.9965V27.9246H50.6734C47.5262 27.9246 47.6219 25.8664 46.5928 23.5449L46.4372 23.2457L47.0355 22.9824L47.1791 23.2696ZM43.2661 22.6115C43.5892 23.2936 43.8166 24.0115 44.0918 24.7176C44.2354 25.1603 44.4627 25.6749 44.8098 26.0219C45.3004 26.5245 46.0663 26.6083 46.7603 26.6083H47.0834V27.2664H46.7603C43.6131 27.2664 43.7208 25.2082 42.6797 22.8867L42.5242 22.5875L43.1464 22.3243L43.2661 22.6115ZM56.5848 28.7862C56.884 29.4683 57.1113 30.1504 57.3866 30.8683C57.5541 31.2991 57.7815 31.8137 58.1046 32.1607C58.6191 32.6753 59.385 32.7471 60.079 32.7471H60.4021V33.4052H60.079C56.9079 33.4052 57.0395 31.3231 55.9745 29.0494L55.8429 28.7622L56.4412 28.487L56.5848 28.7862ZM53.294 29.0255C53.6171 29.7076 53.8445 30.4017 54.1197 31.1077C54.2633 31.5504 54.4907 32.065 54.8377 32.4001C55.3523 32.9146 56.1181 32.9984 56.8122 32.9984H57.1353V33.6565H56.8122C53.6411 33.6565 53.7368 31.5983 52.7077 29.3007L52.5521 29.0016L53.1744 28.7383L53.294 29.0255ZM49.5126 28.3195C49.8357 29.0016 50.0511 29.6837 50.3263 30.4017C50.4699 30.8444 50.6973 31.359 51.0443 31.694C51.5349 32.2086 52.3128 32.2804 52.9949 32.2804H53.318V32.9385H52.9949C49.8596 32.9385 49.9554 30.8923 48.9143 28.5827L48.7707 28.2955L49.381 28.0203L49.5126 28.3195ZM45.8748 27.8289C46.162 28.5109 46.3894 29.193 46.6646 29.8871C46.8321 30.3299 47.0355 30.8444 47.3826 31.2034C47.8971 31.694 48.663 31.7898 49.3331 31.7898H49.6801V32.436H49.3331C46.1979 32.436 46.3176 30.3777 45.2525 28.0921L45.1329 27.8049L45.7192 27.5297L45.8748 27.8289Z" fill="#E30016"/>
<path fill-rule="evenodd" clip-rule="evenodd" d="M32.7715 19.4044L42.8951 31.5026H44.379L36.517 22.0969L38.9342 17.7172C41.3156 22.5875 43.6969 27.4818 46.0423 32.3522C53.0547 35.2959 58.4157 34.8771 62.7835 32.3522C56.4412 28.9058 51.5589 23.6645 48.8186 18.2796L48.0527 18.1121V15.0726H46.8082V13.2417H45.0491V16.4966H45.7432V17.6454L38.7188 16.1735L35.7751 21.2234L33.645 18.6984L32.7715 19.4044Z" stroke="#E30016" stroke-width="0.302362"/>
<path fill-rule="evenodd" clip-rule="evenodd" d="M40.3689 17.3223C40.692 18.0163 40.9193 18.6984 41.1946 19.3805C41.3621 19.8472 41.5655 20.3618 41.9126 20.7088C42.4271 21.1875 43.169 21.2952 43.8631 21.2952H44.1862V21.9294H43.8631C40.7159 21.9294 40.8236 19.8712 39.7586 17.5975L39.627 17.2984L40.2253 17.0351L40.3689 17.3223Z" stroke="#E30016" stroke-width="0.302362"/>
<path fill-rule="evenodd" clip-rule="evenodd" d="M43.7693 17.9805C44.0684 18.6746 44.2838 19.3566 44.5591 20.0627C44.7266 20.5054 44.9539 21.02 45.301 21.367C45.7916 21.8816 46.5694 21.9534 47.2515 21.9534H47.5746V22.6115H47.2515C44.1163 22.6115 44.212 20.5533 43.147 18.2557L43.0273 17.9566L43.6137 17.6933L43.7693 17.9805Z" stroke="#E30016" stroke-width="0.302362"/>
<path fill-rule="evenodd" clip-rule="evenodd" d="M47.3352 18.6745C47.6583 19.3327 47.8737 20.0387 48.1489 20.7328C48.3164 21.1636 48.5199 21.6781 48.8669 22.0252C49.3814 22.5397 50.1593 22.6115 50.8174 22.6115H51.1645V23.2697H50.8174C47.6822 23.2697 47.7779 21.2234 46.7369 18.9139L46.6172 18.6267L47.2035 18.3514L47.3352 18.6745Z" stroke="#E30016" stroke-width="0.302362"/>
<path fill-rule="evenodd" clip-rule="evenodd" d="M51.0681 23.7842C51.3673 24.5022 51.5946 25.1843 51.8579 25.8664C52.0374 26.3331 52.2288 26.8476 52.5759 27.1947C53.1024 27.7092 53.8683 27.781 54.5384 27.781H54.8854V28.4152H54.5384C51.3912 28.4152 51.5109 26.357 50.4458 24.0834L50.3262 23.7603L50.9245 23.497L51.0681 23.7842Z" stroke="#E30016" stroke-width="0.302362"/>
<path fill-rule="evenodd" clip-rule="evenodd" d="M47.1794 23.2697C47.4786 23.9877 47.7299 24.6698 47.9692 25.3758C48.1487 25.8185 48.3761 26.3331 48.7231 26.6801C49.2137 27.1947 49.9796 27.2665 50.6736 27.2665H50.9967V27.9246H50.6736C47.5265 27.9246 47.6222 25.8664 46.5931 23.5449L46.4375 23.2457L47.0358 22.9825L47.1794 23.2697Z" stroke="#E30016" stroke-width="0.302362"/>
<path fill-rule="evenodd" clip-rule="evenodd" d="M43.2654 22.6115C43.5885 23.2936 43.8158 24.0116 44.091 24.7176C44.2346 25.1603 44.462 25.6749 44.809 26.0219C45.2997 26.5245 46.0655 26.6083 46.7596 26.6083H47.0827V27.2664H46.7596C43.6124 27.2664 43.7201 25.2082 42.679 22.8867L42.5234 22.5875L43.1457 22.3243L43.2654 22.6115Z" stroke="#E30016" stroke-width="0.302362"/>
<path fill-rule="evenodd" clip-rule="evenodd" d="M56.5837 28.7862C56.8829 29.4683 57.1102 30.1504 57.3855 30.8684C57.553 31.2992 57.7804 31.8137 58.1035 32.1608C58.618 32.6753 59.3839 32.7471 60.0779 32.7471H60.401V33.4053H60.0779C56.9068 33.4053 57.0384 31.3231 55.9734 29.0495L55.8418 28.7623L56.4401 28.4871L56.5837 28.7862Z" stroke="#E30016" stroke-width="0.302362"/>
<path fill-rule="evenodd" clip-rule="evenodd" d="M53.2927 29.0256C53.6158 29.7077 53.8432 30.4017 54.1184 31.1078C54.262 31.5505 54.4894 32.0651 54.8364 32.4002C55.3509 32.9147 56.1168 32.9985 56.8109 32.9985H57.1339V33.6566H56.8109C53.6397 33.6566 53.7355 31.5984 52.7063 29.3008L52.5508 29.0017L53.173 28.7384L53.2927 29.0256Z" stroke="#E30016" stroke-width="0.302362"/>
<path fill-rule="evenodd" clip-rule="evenodd" d="M49.5115 28.3195C49.8345 29.0016 50.0499 29.6837 50.3252 30.4017C50.4688 30.8445 50.6961 31.359 51.0432 31.6941C51.5338 32.2087 52.3116 32.2805 52.9937 32.2805H53.3168V32.9386H52.9937C49.8585 32.9386 49.9542 30.8923 48.9131 28.5828L48.7695 28.2956L49.3798 28.0204L49.5115 28.3195Z" stroke="#E30016" stroke-width="0.302362"/>
<path fill-rule="evenodd" clip-rule="evenodd" d="M45.8747 27.8289C46.1619 28.511 46.3893 29.1931 46.6645 29.8871C46.8321 30.3299 47.0355 30.8444 47.3825 31.2034C47.8971 31.6941 48.6629 31.7898 49.3331 31.7898H49.6801V32.436H49.3331C46.1978 32.436 46.3175 30.3777 45.2525 28.0921L45.1328 27.805L45.7192 27.5297L45.8747 27.8289Z" stroke="#E30016" stroke-width="0.302362"/>
<path fill-rule="evenodd" clip-rule="evenodd" d="M24.1074 28.0203L33.6208 18.6266L34.3388 19.4762L25.7229 27.9964L24.1074 28.0203Z" fill="#E30016"/>
<path fill-rule="evenodd" clip-rule="evenodd" d="M24.1074 28.0203L33.6208 18.6266L34.3388 19.4762L25.7229 27.9964L24.1074 28.0203Z" stroke="#E30016" stroke-width="0.302362"/>
<path fill-rule="evenodd" clip-rule="evenodd" d="M32.9982 23.9398C34.2308 23.9398 35.2 24.6936 35.2 25.627C35.2 26.6083 34.2308 27.3622 32.9982 27.3622C31.7776 27.3622 30.8203 26.6083 30.8203 25.627C30.8203 24.6936 31.7776 23.9398 32.9982 23.9398ZM33.2734 24.3945V25.3279H34.5539C34.4103 24.8372 33.8837 24.4783 33.2734 24.3945ZM33.2734 25.8903V26.8715C33.9077 26.7998 34.4581 26.4049 34.5778 25.8903H33.2734ZM32.723 26.8715V25.8903H31.4067C31.5383 26.4049 32.0768 26.7998 32.723 26.8715ZM32.723 25.3279V24.3945C32.1007 24.4783 31.5862 24.8372 31.4306 25.3279H32.723Z" fill="#E30016"/>
<path fill-rule="evenodd" clip-rule="evenodd" d="M32.9982 23.9398C34.2308 23.9398 35.2 24.6936 35.2 25.627C35.2 26.6083 34.2308 27.3622 32.9982 27.3622C31.7776 27.3622 30.8203 26.6083 30.8203 25.627C30.8203 24.6936 31.7776 23.9398 32.9982 23.9398Z" stroke="#E30016" stroke-width="0.302362"/>
<path fill-rule="evenodd" clip-rule="evenodd" d="M33.2734 24.3945V25.3279H34.5539C34.4103 24.8373 33.8837 24.4783 33.2734 24.3945Z" stroke="#E30016" stroke-width="0.302362"/>
<path fill-rule="evenodd" clip-rule="evenodd" d="M33.2734 25.8903V26.8716C33.9077 26.7998 34.4581 26.4049 34.5778 25.8903H33.2734Z" stroke="#E30016" stroke-width="0.302362"/>
<path fill-rule="evenodd" clip-rule="evenodd" d="M32.7226 26.8716V25.8903H31.4062C31.5379 26.4049 32.0764 26.7998 32.7226 26.8716Z" stroke="#E30016" stroke-width="0.302362"/>
<path fill-rule="evenodd" clip-rule="evenodd" d="M32.7221 25.3279V24.3945C32.0998 24.4783 31.5853 24.8373 31.4297 25.3279H32.7221Z" stroke="#E30016" stroke-width="0.302362"/>
<path fill-rule="evenodd" clip-rule="evenodd" d="M23.5935 25.7826C23.9406 24.3107 24.4312 22.7671 25.0056 21.367C25.6159 19.9071 26.2381 19.56 27.8177 19.7036L28.1647 19.7276L28.0929 20.3977L27.7698 20.3379C26.4655 20.2182 26.1424 20.4216 25.6159 21.6183C25.0534 22.9824 24.5509 24.5022 24.2038 25.9262L24.132 26.2373L23.5098 26.0937L23.5935 25.7826Z" fill="#E30016"/>
<path fill-rule="evenodd" clip-rule="evenodd" d="M23.5935 25.7826C23.9406 24.3107 24.4312 22.7671 25.0056 21.367C25.6159 19.9071 26.2381 19.56 27.8177 19.7036L28.1647 19.7276L28.0929 20.3977L27.7698 20.3379C26.4655 20.2182 26.1424 20.4216 25.6159 21.6183C25.0534 22.9824 24.5509 24.5022 24.2038 25.9262L24.132 26.2373L23.5098 26.0937L23.5935 25.7826Z" stroke="#E30016" stroke-width="0.302362"/>
<path fill-rule="evenodd" clip-rule="evenodd" d="M19.8228 28.6067L26.7035 12.1408L30.4969 22.0012L31.167 21.7619L27.1582 11.2314L27.0505 11.3032L27.0745 11.2314C24.0829 13.0144 21.0912 14.8094 18.0876 16.6163C15.5627 22.0252 12.595 27.4101 8.38281 32.8189C12.1762 30.8684 16.0174 29.2769 19.8228 28.6067Z" fill="#E30016"/>
<path fill-rule="evenodd" clip-rule="evenodd" d="M19.8228 28.6067L26.7035 12.1408L30.4969 22.0012L31.167 21.7619L27.1582 11.2314L27.0505 11.3032L27.0745 11.2314C24.0829 13.0144 21.0912 14.8094 18.0876 16.6163C15.5627 22.0252 12.595 27.4101 8.38281 32.8189C12.1762 30.8684 16.0174 29.2769 19.8228 28.6067Z" stroke="#E30016" stroke-width="0.302362"/>
</svg>
