<svg width="17" height="20" viewBox="0 0 17 20" fill="none" xmlns="http://www.w3.org/2000/svg">
<path d="M11.2314 12.2383C11.1086 12.1979 10.3319 11.8458 10.8172 10.3618H10.8102C12.0754 9.05126 13.0422 6.94236 13.0422 4.8661C13.0422 1.6736 10.9316 0 8.47864 0C6.02415 0 3.92517 1.67282 3.92517 4.8661C3.92517 6.95091 4.88656 9.06837 6.1594 10.3758C6.65555 11.6849 5.76835 12.1707 5.58287 12.2391C3.01401 13.1735 0 14.8766 0 16.558V17.1884C0 19.4792 4.41591 20 8.50259 20C12.5955 20 16.9557 19.4792 16.9557 17.1884V16.558C16.9557 14.8261 13.927 13.1361 11.2314 12.2383Z" fill="#09111A"/>
</svg>
