<svg width="20" height="20" viewBox="0 0 20 20" fill="none" xmlns="http://www.w3.org/2000/svg">
<g clip-path="url(#clip0_2408_6919)">
<path fill-rule="evenodd" clip-rule="evenodd" d="M4.68315 4.57766e-05C3.87888 3.55852e-05 3.12058 0.379193 2.63802 1.02261L0.723953 3.57465C0.254069 4.20116 -4.53119e-06 4.96336 0 5.74651L7.80822e-05 17.4436C8.83946e-05 18.8503 1.14968 19.9999 2.55638 19.9999C2.55641 19.9999 2.55644 19.9999 2.55646 19.9999L17.4434 20C18.8501 20.0001 19.9997 18.8505 19.9998 17.4437L20 5.74651C20 4.96336 19.746 4.20114 19.2761 3.57465L17.3618 1.02269C16.8792 0.379312 16.1208 0.000211048 15.3165 0.000198364L4.68315 4.57766e-05ZM3.61977 4.25343H16.3799C16.4939 4.25344 16.6032 4.29871 16.6838 4.37929C16.7643 4.45987 16.8096 4.56916 16.8096 4.68312C16.8096 4.79708 16.7643 4.90637 16.6838 4.98695C16.6032 5.06754 16.4939 5.11281 16.3799 5.11281H3.61977C3.50581 5.11281 3.39652 5.06754 3.31593 4.98695C3.23535 4.90637 3.19008 4.79708 3.19008 4.68312C3.19008 4.56916 3.23535 4.45987 3.31593 4.37929C3.39652 4.29871 3.50581 4.25344 3.61977 4.25343ZM9.99405 7.07288C10.8136 7.06966 11.4897 7.74057 11.4929 8.56007C11.4929 8.5601 11.4929 8.56013 11.4929 8.56015C11.4929 8.56018 11.4929 8.5602 11.4929 8.56023C11.4929 8.56026 11.4929 8.56028 11.4929 8.56031C11.4929 8.56034 11.4929 8.56036 11.4929 8.56039C11.4929 8.56041 11.4929 8.56044 11.4929 8.56046C11.4929 8.56049 11.4929 8.56052 11.4929 8.56054C11.4929 8.56057 11.4929 8.56059 11.4929 8.56062L11.5027 12.3952L12.1342 11.7637C12.1343 11.7636 12.1343 11.7636 12.1343 11.7636C12.7138 11.1843 13.6662 11.1843 14.2456 11.7636C14.2456 11.7636 14.2457 11.7636 14.2457 11.7637C14.825 12.3431 14.825 13.2955 14.2457 13.875C14.2457 13.875 14.2456 13.875 14.2456 13.875L11.5955 16.5251C10.7222 17.3985 9.27762 17.3985 8.40424 16.5251L5.75417 13.875C5.75414 13.875 5.75412 13.875 5.75409 13.875C5.17477 13.2955 5.17477 12.3431 5.75409 11.7637C5.75412 11.7636 5.75414 11.7636 5.75417 11.7636C6.33361 11.1843 7.286 11.1843 7.86545 11.7636C7.86545 11.7636 7.86545 11.7636 7.86545 11.7637L8.51662 12.4148L8.50685 8.56909C8.50685 8.56901 8.50685 8.56893 8.50685 8.56886C8.50524 7.75046 9.17566 7.07608 9.99405 7.07288Z" fill="white"/>
</g>
<defs>
<clipPath id="clip0_2408_6919">
<rect width="20" height="20" fill="white"/>
</clipPath>
</defs>
</svg>
