<svg width="20" height="20" viewBox="0 0 20 20" fill="none" xmlns="http://www.w3.org/2000/svg">
<path d="M11.3271 15.3667L16.666 10L11.3271 4.63334C11.2789 4.57003 11.2177 4.51781 11.1475 4.48022C11.0773 4.44264 10.9999 4.42056 10.9205 4.41549C10.8411 4.41043 10.7615 4.42248 10.6871 4.45085C10.6128 4.47921 10.5454 4.52322 10.4895 4.5799C10.4336 4.63658 10.3906 4.7046 10.3633 4.77936C10.336 4.85412 10.3251 4.93387 10.3313 5.01321C10.3375 5.09256 10.3606 5.16965 10.3992 5.23925C10.4378 5.30886 10.4909 5.36937 10.5549 5.41668L14.5493 9.44446L3.92157 9.44446C3.77423 9.44446 3.63292 9.50299 3.52873 9.60717C3.42455 9.71136 3.36602 9.85267 3.36602 10C3.36602 10.1474 3.42455 10.2887 3.52873 10.3928C3.63292 10.497 3.77423 10.5556 3.92157 10.5556L14.5493 10.5556L10.5549 14.5833C10.451 14.688 10.393 14.8296 10.3935 14.977C10.394 15.1244 10.4531 15.2656 10.5577 15.3695C10.6623 15.4733 10.8039 15.5314 10.9513 15.5309C11.0987 15.5304 11.2399 15.4713 11.3438 15.3667L11.3271 15.3667Z" fill="black"/>
</svg>
