<svg width="10" height="6" viewBox="0 0 10 6" fill="none" xmlns="http://www.w3.org/2000/svg">
<path d="M8.37967 1.10514L5.25648 4.17895C5.18834 4.24637 5.09635 4.28418 5.0005 4.28418C4.90464 4.28418 4.81265 4.24637 4.74451 4.17895L1.62066 1.1058C1.55209 1.03842 1.4598 1.00067 1.36367 1.00067C1.26753 1.00067 1.17525 1.03842 1.10668 1.1058C1.07292 1.13872 1.04608 1.17806 1.02776 1.22151C1.00944 1.26496 1 1.31163 1 1.35879C1 1.40594 1.00944 1.45262 1.02776 1.49607C1.04608 1.53951 1.07292 1.57886 1.10668 1.61177L4.2292 4.68492C4.43487 4.88686 4.71159 5 4.99983 5C5.28807 5 5.56479 4.88686 5.77046 4.68492L8.89298 1.61177C8.92684 1.57885 8.95376 1.53946 8.97215 1.49595C8.99053 1.45244 9 1.40569 9 1.35845C9 1.31122 8.99053 1.26447 8.97215 1.22095C8.95376 1.17744 8.92684 1.13806 8.89298 1.10514C8.82441 1.03776 8.73212 1 8.63599 1C8.53986 1 8.44824 1.03776 8.37967 1.10514Z" fill="black" stroke="black"/>
</svg>
