<svg width="324" height="240" viewBox="0 0 324 240" fill="none" xmlns="http://www.w3.org/2000/svg">
<path d="M133.328 8.87797L132.789 9.71981L132.789 9.7198L133.328 8.87797ZM225.433 105.199L225.744 106.149L225.433 105.199ZM190.504 238.435C189.957 238.365 189.569 237.864 189.639 237.316L190.78 228.389C190.85 227.841 191.351 227.454 191.899 227.524C192.447 227.594 192.834 228.095 192.764 228.643L191.75 236.578L199.685 237.592C200.233 237.662 200.621 238.163 200.551 238.711C200.481 239.259 199.98 239.646 199.432 239.576L190.504 238.435ZM133.868 8.03614C142.665 13.6763 147.024 20.7553 148.28 28.6682C149.527 36.5269 147.698 45.0967 144.362 53.7413C141.024 62.395 136.136 71.2223 131.163 79.6222C126.171 88.0544 121.119 96.015 117.358 103.056C115.482 106.568 113.949 109.814 112.92 112.733C111.887 115.662 111.385 118.196 111.511 120.305C111.635 122.378 112.361 124.028 113.812 125.291C115.294 126.58 117.626 127.548 121.111 128.025C128.098 128.98 139.29 127.905 156.21 124.129C173.098 120.361 195.589 113.927 225.121 104.249L225.744 106.149C196.185 115.836 173.625 122.292 156.645 126.081C139.697 129.863 128.206 131.013 120.84 130.006C117.148 129.502 114.386 128.442 112.499 126.8C110.581 125.131 109.665 122.946 109.514 120.424C109.366 117.936 109.959 115.114 111.033 112.068C112.111 109.014 113.696 105.668 115.594 102.114C119.382 95.0231 124.499 86.9539 129.442 78.6033C134.405 70.2204 139.221 61.5118 142.496 53.0214C145.776 44.5218 147.473 36.3391 146.305 28.9818C145.145 21.6786 141.146 15.0781 132.789 9.71981L133.868 8.03614ZM225.121 104.249C254.69 94.5579 276.382 89.3372 291.689 87.6466C299.342 86.8014 305.446 86.8329 310.163 87.6524C314.874 88.4711 318.297 90.0937 320.457 92.5163C322.638 94.9631 323.411 98.0885 323.093 101.635C322.777 105.157 321.385 109.146 319.182 113.455C314.775 122.077 306.991 132.234 297.413 142.939C278.243 164.364 251.691 188.192 229.955 206.649C219.082 215.881 209.406 223.776 202.447 229.363C198.968 232.157 196.168 234.374 194.237 235.893C193.272 236.652 192.524 237.237 192.017 237.633C191.763 237.83 191.57 237.98 191.44 238.081C191.375 238.132 191.326 238.17 191.293 238.195C191.277 238.208 191.264 238.218 191.256 238.224C191.252 238.228 191.248 238.23 191.246 238.232C191.244 238.233 191.243 238.234 190.631 237.443C190.019 236.652 190.02 236.651 190.022 236.65C190.024 236.648 190.027 236.646 190.031 236.643C190.04 236.637 190.052 236.627 190.068 236.615C190.1 236.589 190.149 236.552 190.214 236.502C190.343 236.402 190.535 236.252 190.787 236.055C191.292 235.662 192.038 235.079 193.001 234.321C194.927 232.806 197.721 230.593 201.195 227.804C208.143 222.225 217.804 214.342 228.66 205.124C250.381 186.681 276.847 162.924 295.923 141.605C305.468 130.938 313.113 120.933 317.401 112.545C319.546 108.349 320.817 104.62 321.101 101.456C321.383 98.3151 320.691 95.784 318.964 93.8474C317.216 91.8866 314.286 90.3989 309.82 89.6229C305.36 88.8478 299.462 88.8003 291.909 89.6345C276.805 91.3026 255.266 96.4737 225.744 106.149L225.121 104.249ZM132.789 9.7198C121.802 2.676 108.171 1.27428 93.7826 3.22913C79.3985 5.18339 64.3632 10.4793 50.6823 16.6982C37.0084 22.9139 24.7296 30.0321 15.8664 35.5991C11.436 38.3819 7.8619 40.7752 5.39689 42.4718C4.16445 43.32 3.20943 43.994 2.56346 44.4552C2.24047 44.6858 1.99476 44.8632 1.83027 44.9826C1.74803 45.0423 1.6861 45.0875 1.64496 45.1176C1.6244 45.1326 1.60903 45.1439 1.59893 45.1513C1.59387 45.155 1.59014 45.1578 1.58773 45.1595C1.58652 45.1604 1.5857 45.161 1.5851 45.1615C1.58462 45.1618 1.58446 45.1619 0.991049 44.357C0.397634 43.5521 0.398149 43.5518 0.398995 43.5511C0.399721 43.5506 0.4009 43.5497 0.40235 43.5487C0.405249 43.5465 0.409474 43.5434 0.415017 43.5394C0.426101 43.5312 0.442456 43.5192 0.464019 43.5034C0.507146 43.4719 0.571106 43.4252 0.655406 43.364C0.824005 43.2416 1.07397 43.0612 1.40134 42.8275C2.05608 42.36 3.02051 41.6795 4.26299 40.8243C6.74782 39.1141 10.3455 36.7051 14.8027 33.9055C23.7147 28.3078 36.0747 21.1414 49.8547 14.8775C63.6277 8.61675 78.8615 3.23799 93.5134 1.24733C108.161 -0.742731 122.333 0.640428 133.868 8.03614L132.789 9.7198Z" fill="#F6D31D"/>
</svg>
