<svg width="24" height="24" viewBox="0 0 24 24" fill="none" xmlns="http://www.w3.org/2000/svg">
<g clip-path="url(#clip0_1045_1958)">
<path d="M8.78438 23.9953C4.51875 24.15 1.17188 21.3235 0.693753 17.6203C0.370316 15.1313 1.11563 12.9985 2.88282 11.2266C6.08907 8.01097 9.3 4.80003 12.5156 1.59378C13.5375 0.571905 14.775 0.0328422 16.2188 2.97076e-05C18.3375 -0.0468453 20.3203 1.22815 21.1688 3.1594C22.0313 5.13284 21.6563 7.4344 20.1609 8.96253C18.3422 10.8235 16.4859 12.6469 14.6484 14.4844C13.2234 15.9094 11.7984 17.3344 10.3688 18.7547C9.39375 19.7203 8.24532 20.0157 6.94219 19.561C4.8375 18.8297 4.13907 16.0735 5.67657 14.4516C6.89532 13.1625 8.175 11.9344 9.42657 10.6828C11.2031 8.90628 12.975 7.1344 14.7516 5.36253C15.0609 5.05315 15.4172 4.92659 15.8484 5.04847C16.2563 5.16097 16.5 5.44222 16.5891 5.85003C16.6734 6.23909 16.5516 6.5719 16.2703 6.85315C14.9859 8.13284 13.7016 9.41722 12.4172 10.7016C10.725 12.3938 9.03282 14.0813 7.34532 15.7735C6.86719 16.2516 6.85782 16.8938 7.30313 17.3344C7.73438 17.761 8.37657 17.7375 8.85 17.2688C11.4422 14.6813 14.0344 12.0938 16.6266 9.50628C17.2828 8.85003 17.9531 8.20315 18.5953 7.53753C20.2453 5.81253 19.5422 2.99065 17.2688 2.28284C16.0875 1.91253 15.0094 2.16097 14.1094 3.01878C13.1484 3.93753 12.2203 4.89378 11.2828 5.83128C9 8.11409 6.71719 10.3922 4.43438 12.675C3.22032 13.8797 2.60625 15.3188 2.77032 17.0203C2.97657 19.1625 4.09688 20.7141 6.10313 21.5016C8.14219 22.3032 10.0688 21.9563 11.6672 20.4469C13.4719 18.7407 15.1922 16.95 16.95 15.1922C18.4781 13.6688 20.0016 12.1407 21.525 10.6172C21.8438 10.2985 22.2188 10.186 22.65 10.3172C23.0625 10.4438 23.3063 10.7438 23.3719 11.1703C23.4328 11.5547 23.2875 11.8688 23.0156 12.1407C21.75 13.4063 20.4844 14.6719 19.2188 15.9375C17.2781 17.8782 15.3375 19.8188 13.4016 21.7547C11.9719 23.1797 10.2563 23.9344 8.78438 23.9953Z" fill="#72768B"/>
</g>
<defs>
<clipPath id="clip0_1045_1958">
<rect width="24" height="24" fill="white"/>
</clipPath>
</defs>
</svg>
