<svg width="26" height="26" viewBox="0 0 26 26" fill="none" xmlns="http://www.w3.org/2000/svg">
<path d="M1 1H3.35795C4.4113 1 4.93798 1 5.3345 1.28604C5.73102 1.57208 5.8975 2.07152 6.23046 3.07039L7.05377 5.54033" stroke="#72768B" stroke-width="2" stroke-linecap="round"/>
<path d="M22.1883 20.6747H7.88629C7.66684 20.6747 7.55636 20.6747 7.47161 20.6656C7.26147 20.6422 7.05858 20.575 6.87601 20.4683C6.69344 20.3617 6.53524 20.218 6.41162 20.0464C6.28799 19.8749 6.20168 19.6793 6.15825 19.4724C6.11482 19.2655 6.11523 19.0517 6.15945 18.845C6.19425 18.711 6.23516 18.5787 6.28204 18.4485C6.36074 18.2154 6.39858 18.0988 6.44247 17.9944C6.65791 17.4784 7.01208 17.0322 7.46569 16.7052C7.91931 16.3782 8.45463 16.1832 9.01229 16.142C9.12429 16.1344 9.24688 16.1344 9.49206 16.1344H17.648" stroke="#72768B" stroke-width="2" stroke-linecap="round" stroke-linejoin="round"/>
<path d="M17.1623 16.1344H12.5599C10.6227 16.1344 9.65406 16.1344 8.89734 15.635C8.1391 15.1355 7.75771 14.2456 6.99494 12.4658L6.73917 11.8695C5.51328 9.0091 4.90184 7.58192 5.57381 6.56034C6.24881 5.54028 7.80463 5.54028 10.9132 5.54028H18.9042C22.3851 5.54028 24.1241 5.54028 24.7809 6.67083C25.4362 7.80137 24.5736 9.31178 22.8467 12.3326L22.4184 13.0848C21.5679 14.5725 21.1426 15.3171 20.4373 15.7258C19.7321 16.1344 18.8755 16.1344 17.1623 16.1344Z" stroke="#72768B" stroke-width="2" stroke-linecap="round"/>
<path d="M21.4315 25.9718C22.2674 25.9718 22.945 25.2942 22.945 24.4584C22.945 23.6225 22.2674 22.9449 21.4315 22.9449C20.5957 22.9449 19.9181 23.6225 19.9181 24.4584C19.9181 25.2942 20.5957 25.9718 21.4315 25.9718Z" fill="#72768B"/>
<path d="M9.32399 25.9718C10.1598 25.9718 10.8374 25.2942 10.8374 24.4584C10.8374 23.6225 10.1598 22.9449 9.32399 22.9449C8.48814 22.9449 7.81055 23.6225 7.81055 24.4584C7.81055 25.2942 8.48814 25.9718 9.32399 25.9718Z" fill="#72768B"/>
</svg>
