<svg width="22" height="18" viewBox="0 0 22 18" fill="none" xmlns="http://www.w3.org/2000/svg">
<path d="M22 9C22 9.26522 21.9034 9.51957 21.7315 9.70711C21.5596 9.89464 21.3264 10 21.0833 10H0.916667C0.673552 10 0.440394 9.89464 0.268486 9.70711C0.0965773 9.51957 0 9.26522 0 9C0 8.73478 0.0965773 8.48043 0.268486 8.29289C0.440394 8.10536 0.673552 8 0.916667 8H21.0833C21.3264 8 21.5596 8.10536 21.7315 8.29289C21.9034 8.48043 22 8.73478 22 9ZM0.916667 2H21.0833C21.3264 2 21.5596 1.89464 21.7315 1.70711C21.9034 1.51957 22 1.26522 22 1C22 0.734784 21.9034 0.48043 21.7315 0.292893C21.5596 0.105357 21.3264 0 21.0833 0H0.916667C0.673552 0 0.440394 0.105357 0.268486 0.292893C0.0965773 0.48043 0 0.734784 0 1C0 1.26522 0.0965773 1.51957 0.268486 1.70711C0.440394 1.89464 0.673552 2 0.916667 2ZM21.0833 16H0.916667C0.673552 16 0.440394 16.1054 0.268486 16.2929C0.0965773 16.4804 0 16.7348 0 17C0 17.2652 0.0965773 17.5196 0.268486 17.7071C0.440394 17.8946 0.673552 18 0.916667 18H21.0833C21.3264 18 21.5596 17.8946 21.7315 17.7071C21.9034 17.5196 22 17.2652 22 17C22 16.7348 21.9034 16.4804 21.7315 16.2929C21.5596 16.1054 21.3264 16 21.0833 16Z" fill="#72768B"/>
</svg>
