<svg width="20" height="20" viewBox="0 0 20 20" fill="none" xmlns="http://www.w3.org/2000/svg">
<path d="M15.3488 12.2991L14.4937 12.7284C14.4412 12.7546 14.3932 12.7897 14.3517 12.8313L12.7025 14.4848C12.0952 15.0937 11.181 15.2744 10.3881 14.9426C9.94246 14.7542 9.57767 14.4224 9.28824 14.0348C8.2856 12.6933 7.09729 11.5019 5.75825 10.4977C5.36943 10.2043 5.03959 9.83524 4.84954 9.38736C4.50878 8.57593 4.69227 7.63747 5.31373 7.01439L6.89414 5.42985C6.9422 5.38167 6.98042 5.32473 7.00773 5.26231L7.42167 4.31509C7.51342 4.10922 7.46864 3.86831 7.30917 3.70843L3.77045 0.160469C3.60444 -0.00597863 3.34995 -0.0475905 3.14025 0.0575343L1.71493 0.772602C1.61773 0.821879 1.53472 0.898533 1.48011 0.993802C1.02139 1.7899 0.616181 2.62105 0.285245 3.49052C-0.0948401 4.48811 -0.0861025 5.5963 0.25794 6.60703C2.41285 12.932 7.51123 17.8806 13.9257 19.8035C14.8126 20.0696 15.7606 20.0718 16.6398 19.7805C17.3934 19.5297 18.1219 19.2242 18.8264 18.876C18.9444 18.8179 19.0383 18.7183 19.0907 18.5978L19.876 16.802C19.9667 16.595 19.9208 16.3541 19.7624 16.1953L15.979 12.402C15.813 12.2356 15.5596 12.194 15.3488 12.2991Z" fill="#72768B"/>
</svg>
