<svg width="24" height="24" viewBox="0 0 24 24" fill="none" xmlns="http://www.w3.org/2000/svg">
<g clip-path="url(#clip0_1167_318)">
<path d="M8.2263 11.1376H2.91131C2.13968 11.136 1.40012 10.8288 0.854489 10.2831C0.308862 9.7375 0.00161599 8.99793 0 8.2263L0 2.91131C0.00161599 2.13968 0.308862 1.40012 0.854489 0.854489C1.40012 0.308862 2.13968 0.00161599 2.91131 0L8.2263 0C8.99793 0.00161599 9.7375 0.308862 10.2831 0.854489C10.8288 1.40012 11.136 2.13968 11.1376 2.91131V8.2263C11.136 8.99793 10.8288 9.7375 10.2831 10.2831C9.7375 10.8288 8.99793 11.136 8.2263 11.1376ZM2.91131 1.9633C2.78762 1.9641 2.6653 1.98926 2.55133 2.03734C2.43736 2.08541 2.33397 2.15546 2.24708 2.2435C2.16018 2.33153 2.09148 2.43581 2.04489 2.5504C1.99829 2.66498 1.97473 2.78762 1.97553 2.91131V8.2263C1.97473 8.34999 1.99829 8.47263 2.04489 8.58722C2.09148 8.7018 2.16018 8.80609 2.24708 8.89412C2.33397 8.98215 2.43736 9.0522 2.55133 9.10028C2.6653 9.14835 2.78762 9.17351 2.91131 9.17431H8.2263C8.35102 9.17512 8.47466 9.15116 8.59005 9.1038C8.70543 9.05645 8.81026 8.98665 8.89846 8.89846C8.98665 8.81026 9.05645 8.70543 9.1038 8.59005C9.15116 8.47466 9.17512 8.35102 9.17431 8.2263V2.91131C9.17271 2.66363 9.0736 2.42654 8.89846 2.25139C8.72331 2.07624 8.48622 1.97714 8.23853 1.97553L2.91131 1.9633Z" fill="#72768B"/>
<path d="M21.0887 11.1376H15.7737C15.3901 11.1392 15.0099 11.0652 14.6549 10.9197C14.2999 10.7742 13.9771 10.5601 13.705 10.2896C13.4329 10.0192 13.2168 9.69778 13.069 9.34373C12.9213 8.98968 12.8448 8.60996 12.844 8.22633V2.91134C12.8448 2.5277 12.9213 2.14799 13.069 1.79394C13.2168 1.43988 13.4329 1.11845 13.705 0.848026C13.9771 0.577605 14.2999 0.36351 14.6549 0.217999C15.0099 0.0724875 15.3901 -0.00158372 15.7737 2.56735e-05H21.0887C21.8603 0.00164166 22.5999 0.308888 23.1455 0.854515C23.6911 1.40014 23.9984 2.13971 24 2.91134V8.22633C23.9984 8.99796 23.6911 9.73752 23.1455 10.2832C22.5999 10.8288 21.8603 11.136 21.0887 11.1376ZM15.7737 1.96333C15.526 1.96493 15.2889 2.06404 15.1138 2.23918C14.9386 2.41433 14.8395 2.65142 14.8379 2.89911V8.21409C14.8355 8.33881 14.8578 8.46276 14.9037 8.57876C14.9496 8.69476 15.018 8.8005 15.1051 8.88983C15.1921 8.97917 15.2961 9.05032 15.4108 9.09916C15.5256 9.148 15.649 9.17355 15.7737 9.17434H21.0887C21.3374 9.17111 21.5748 9.06962 21.749 8.892C21.9231 8.71439 22.02 8.47508 22.0183 8.22633V2.91134C22.0167 2.66365 21.9176 2.42656 21.7425 2.25142C21.5673 2.07627 21.3302 1.97716 21.0826 1.97556L15.7737 1.96333Z" fill="#72768B"/>
<path d="M8.22631 23.7187H2.91132C2.5282 23.7179 2.14899 23.6416 1.79533 23.4943C1.44168 23.3469 1.12052 23.1313 0.850175 22.8598C0.579835 22.5884 0.365613 22.2663 0.21974 21.912C0.0738681 21.5578 -0.000797609 21.1782 6.42512e-06 20.7951V15.4924C0.00162241 14.7207 0.308868 13.9812 0.854496 13.4355C1.40012 12.8899 2.13969 12.5827 2.91132 12.5811H8.22631C8.99794 12.5827 9.7375 12.8899 10.2831 13.4355C10.8288 13.9812 11.136 14.7207 11.1376 15.4924V20.7951C11.1384 21.1782 11.0638 21.5578 10.9179 21.912C10.772 22.2663 10.5578 22.5884 10.2875 22.8598C10.0171 23.1313 9.69595 23.3469 9.34229 23.4943C8.98864 23.6416 8.60943 23.7179 8.22631 23.7187ZM2.91132 14.5444C2.66363 14.546 2.42654 14.6451 2.2514 14.8202C2.07625 14.9954 1.97714 15.2324 1.97554 15.4801V20.7951C1.97714 21.0428 2.07625 21.2799 2.2514 21.455C2.42654 21.6302 2.66363 21.7293 2.91132 21.7309H8.22631C8.35 21.7317 8.47264 21.7081 8.58722 21.6615C8.70181 21.615 8.80609 21.5463 8.89412 21.4594C8.98216 21.3725 9.05221 21.2691 9.10028 21.1551C9.14836 21.0411 9.17352 20.9188 9.17432 20.7951V15.4924C9.17272 15.2447 9.07361 15.0076 8.89846 14.8324C8.72332 14.6573 8.48623 14.5582 8.23854 14.5566L2.91132 14.5444Z" fill="#72768B"/>
<path d="M21.0887 23.7187H15.7737C15.389 23.7203 15.0078 23.6458 14.6521 23.4995C14.2963 23.3533 13.973 23.1381 13.7007 22.8664C13.4284 22.5946 13.2125 22.2718 13.0655 21.9163C12.9185 21.5608 12.8432 21.1798 12.844 20.7951V15.4924C12.8456 14.7207 13.1529 13.9812 13.6985 13.4355C14.2441 12.8899 14.9837 12.5827 15.7553 12.5811H21.0703C21.842 12.5827 22.5815 12.8899 23.1272 13.4355C23.6728 13.9812 23.98 14.7207 23.9816 15.4924V20.7951C23.9833 21.5657 23.68 22.3057 23.138 22.8534C22.596 23.4011 21.8592 23.7122 21.0887 23.7187ZM15.7737 14.5444C15.526 14.546 15.2889 14.6451 15.1138 14.8202C14.9386 14.9954 14.8395 15.2324 14.8379 15.4801V20.7951C14.8395 21.0428 14.9386 21.2799 15.1138 21.455C15.2889 21.6302 15.526 21.7293 15.7737 21.7309H21.0887C21.3353 21.7277 21.5708 21.6279 21.7447 21.4529C21.9185 21.2779 22.0168 21.0418 22.0183 20.7951V15.4924C22.0167 15.2447 21.9176 15.0076 21.7425 14.8324C21.5673 14.6573 21.3303 14.5582 21.0826 14.5566L15.7737 14.5444Z" fill="#72768B"/>
</g>
<defs>
<clipPath id="clip0_1167_318">
<rect width="24" height="23.7187" fill="white"/>
</clipPath>
</defs>
</svg>
