<svg width="21" height="20" viewBox="0 0 21 20" fill="none" xmlns="http://www.w3.org/2000/svg">
<path d="M6.93655 9.39142H2.45487C1.80422 9.39005 1.1806 9.13098 0.720519 8.6709C0.260437 8.21082 0.00136263 7.5872 0 6.93655L0 2.45487C0.00136263 1.80422 0.260437 1.1806 0.720519 0.720519C1.1806 0.260437 1.80422 0.00136263 2.45487 0L6.93655 0C7.5872 0.00136263 8.21082 0.260437 8.6709 0.720519C9.13098 1.1806 9.39005 1.80422 9.39142 2.45487V6.93655C9.39005 7.5872 9.13098 8.21082 8.6709 8.6709C8.21082 9.13098 7.5872 9.39005 6.93655 9.39142ZM2.45487 1.65549C2.35057 1.65616 2.24742 1.67738 2.15132 1.71791C2.05522 1.75845 1.96805 1.81752 1.89477 1.89175C1.8215 1.96598 1.76357 2.05392 1.72428 2.15054C1.68499 2.24716 1.66512 2.35057 1.6658 2.45487V6.93655C1.66512 7.04085 1.68499 7.14426 1.72428 7.24088C1.76357 7.3375 1.8215 7.42544 1.89477 7.49966C1.96805 7.57389 2.05522 7.63296 2.15132 7.6735C2.24742 7.71404 2.35057 7.73525 2.45487 7.73593H6.93655C7.04172 7.73661 7.14597 7.7164 7.24327 7.67648C7.34056 7.63655 7.42896 7.57769 7.50332 7.50332C7.57769 7.42896 7.63655 7.34056 7.67648 7.24327C7.7164 7.14597 7.73661 7.04172 7.73593 6.93655V2.45487C7.73458 2.24601 7.65101 2.0461 7.50332 1.89841C7.35564 1.75072 7.15572 1.66716 6.94686 1.6658L2.45487 1.65549Z" fill="#111827"/>
<path d="M17.7823 9.39144H13.3007C12.9772 9.3928 12.6566 9.33034 12.3573 9.20764C12.058 9.08494 11.7858 8.90442 11.5563 8.67639C11.3269 8.44837 11.1446 8.17733 11.02 7.87879C10.8955 7.58024 10.831 7.26006 10.8303 6.93657V2.45489C10.831 2.1314 10.8955 1.81122 11.02 1.51268C11.1446 1.21413 11.3269 0.943092 11.5563 0.715069C11.7858 0.487046 12.058 0.306518 12.3573 0.18382C12.6566 0.0611226 12.9772 -0.00133541 13.3007 2.16483e-05H17.7823C18.433 0.00138428 19.0566 0.260459 19.5167 0.720541C19.9768 1.18062 20.2359 1.80424 20.2372 2.45489V6.93657C20.2359 7.58722 19.9768 8.21084 19.5167 8.67092C19.0566 9.131 18.433 9.39008 17.7823 9.39144ZM13.3007 1.65551C13.0918 1.65686 12.8919 1.74043 12.7442 1.88812C12.5965 2.0358 12.5129 2.23572 12.5116 2.44458V6.92626C12.5095 7.03142 12.5284 7.13594 12.5671 7.23375C12.6057 7.33157 12.6635 7.42072 12.7369 7.49605C12.8103 7.57138 12.8979 7.63138 12.9947 7.67256C13.0915 7.71374 13.1955 7.73529 13.3007 7.73595H17.7823C17.9921 7.73323 18.1922 7.64765 18.3391 7.49788C18.486 7.34812 18.5676 7.14633 18.5663 6.93657V2.45489C18.5649 2.24603 18.4813 2.04612 18.3336 1.89843C18.186 1.75074 17.986 1.66718 17.7772 1.66583L13.3007 1.65551Z" fill="#111827"/>
<path d="M6.93656 20.0001H2.45487C2.13182 19.9994 1.81206 19.9351 1.51385 19.8108C1.21565 19.6866 0.944838 19.5048 0.716882 19.2759C0.488926 19.047 0.308291 18.7754 0.185289 18.4767C0.0622868 18.178 -0.000672557 17.8579 5.41777e-06 17.5349V13.0635C0.00136805 12.4129 0.260443 11.7892 0.720525 11.3292C1.18061 10.8691 1.80422 10.61 2.45487 10.6086H6.93656C7.58721 10.61 8.21082 10.8691 8.67091 11.3292C9.13099 11.7892 9.39006 12.4129 9.39143 13.0635V17.5349C9.3921 17.8579 9.32914 18.178 9.20614 18.4767C9.08314 18.7754 8.9025 19.047 8.67455 19.2759C8.44659 19.5048 8.17578 19.6866 7.87758 19.8108C7.57937 19.9351 7.25961 19.9994 6.93656 20.0001ZM2.45487 12.2641C2.24602 12.2655 2.0461 12.3491 1.89841 12.4967C1.75073 12.6444 1.66716 12.8443 1.66581 13.0532V17.5349C1.66716 17.7437 1.75073 17.9437 1.89841 18.0913C2.0461 18.239 2.24602 18.3226 2.45487 18.3239H6.93656C7.04086 18.3246 7.14427 18.3048 7.24089 18.2655C7.33751 18.2262 7.42544 18.1682 7.49967 18.095C7.5739 18.0217 7.63297 17.9345 7.67351 17.8384C7.71405 17.7423 7.73526 17.6392 7.73594 17.5349V13.0635C7.73458 12.8547 7.65102 12.6547 7.50333 12.5071C7.35564 12.3594 7.15573 12.2758 6.94687 12.2744L2.45487 12.2641Z" fill="#111827"/>
<path d="M17.7824 20.0001H13.3007C12.9763 20.0014 12.6549 19.9386 12.3549 19.8153C12.0549 19.6919 11.7823 19.5105 11.5527 19.2814C11.3231 19.0523 11.1411 18.78 11.0171 18.4803C10.8931 18.1805 10.8296 17.8592 10.8303 17.5349V13.0635C10.8317 12.4129 11.0908 11.7892 11.5508 11.3292C12.0109 10.8691 12.6345 10.61 13.2852 10.6086H17.7669C18.4175 10.61 19.0411 10.8691 19.5012 11.3292C19.9613 11.7892 20.2204 12.4129 20.2217 13.0635V17.5349C20.2231 18.1847 19.9674 18.8086 19.5104 19.2705C19.0533 19.7323 18.4321 19.9946 17.7824 20.0001ZM13.3007 12.2641C13.0918 12.2655 12.8919 12.3491 12.7442 12.4967C12.5965 12.6444 12.513 12.8443 12.5116 13.0532V17.5349C12.513 17.7437 12.5965 17.9437 12.7442 18.0913C12.8919 18.239 13.0918 18.3226 13.3007 18.3239H17.7824C17.9903 18.3212 18.1889 18.2371 18.3355 18.0895C18.4821 17.942 18.5649 17.7428 18.5663 17.5349V13.0635C18.5649 12.8547 18.4813 12.6547 18.3337 12.5071C18.186 12.3594 17.986 12.2758 17.7772 12.2744L13.3007 12.2641Z" fill="#111827"/>
</svg>
