<svg width="24" height="24" viewBox="0 0 24 24" fill="none" xmlns="http://www.w3.org/2000/svg">
<path d="M21.6832 5.33317H15.4629C15.4327 4.2899 14.5767 3.44995 13.5231 3.44995H2.36606C1.29276 3.44995 0.419922 4.31935 0.419922 5.38996V12.6852C0.419922 13.7558 1.29276 14.6259 2.36606 14.6259H3.27477L6.53614 18.379C6.64586 18.5059 6.80482 18.5767 6.97151 18.5767C7.03762 18.5767 7.10514 18.5655 7.17337 18.541C7.39703 18.4575 7.54754 18.2409 7.54754 18.0025V14.6259H8.58708C8.61732 15.6685 9.47328 16.5098 10.5269 16.5098H16.5038V19.8857C16.5038 20.1241 16.6544 20.3401 16.8794 20.4249C16.9462 20.4487 17.0131 20.46 17.0792 20.46C17.2452 20.46 17.4048 20.3884 17.5145 20.2629L20.7759 16.5098H21.6839C22.7572 16.5098 23.6308 15.6397 23.6308 14.5691V7.27319C23.6301 6.20257 22.7572 5.33317 21.6832 5.33317ZM8.58004 7.27319V13.4767H6.97081C6.6529 13.4767 6.39477 13.7348 6.39477 14.051V16.4628L3.97318 13.6738C3.86276 13.549 3.70451 13.476 3.51883 13.476H2.36676C1.92858 13.476 1.57269 13.122 1.57269 12.6845V5.38996C1.57269 4.95386 1.92928 4.59769 2.36676 4.59769H13.5245C13.9423 4.59769 14.2757 4.92442 14.3059 5.33317H10.5262C9.45288 5.33317 8.58004 6.20257 8.58004 7.27319ZM22.478 14.5691C22.478 15.0059 22.1214 15.3607 21.6832 15.3607H20.5129C20.3469 15.3607 20.1872 15.4322 20.0761 15.5584L17.6552 18.3468V15.9349C17.6552 15.6187 17.3964 15.3614 17.0792 15.3614H10.5262C10.0887 15.3614 9.73281 15.0066 9.73281 14.5698V7.27319C9.73281 6.83639 10.0887 6.48092 10.5262 6.48092H21.6839C22.1221 6.48092 22.4787 6.83639 22.4787 7.27319L22.478 14.5691Z" fill="#111827"/>
<path d="M21.0567 8.24072H11.1537C10.8358 8.24072 10.5776 8.49804 10.5776 8.81424C10.5776 9.13045 10.8358 9.38846 11.1537 9.38846H21.0567C21.3746 9.38846 21.6334 9.13045 21.6334 8.81424C21.6334 8.49804 21.3746 8.24072 21.0567 8.24072Z" fill="#111827"/>
<path d="M21.0567 10.3462H11.1537C10.8358 10.3462 10.5776 10.6035 10.5776 10.9204C10.5776 11.2366 10.8358 11.4946 11.1537 11.4946H21.0567C21.3746 11.4946 21.6334 11.2366 21.6334 10.9204C21.6334 10.6035 21.3746 10.3462 21.0567 10.3462Z" fill="#111827"/>
<path d="M15.8414 12.4524H11.1537C10.8358 12.4524 10.5776 12.7097 10.5776 13.0259C10.5776 13.3421 10.8358 13.6001 11.1537 13.6001H15.8414C16.1586 13.6001 16.4167 13.3421 16.4167 13.0259C16.4167 12.7097 16.1586 12.4524 15.8414 12.4524Z" fill="#111827"/>
</svg>
