<svg width="20" height="20" viewBox="0 0 20 20" fill="none" xmlns="http://www.w3.org/2000/svg">
<path d="M3.125 5.00003H1.875C1.70924 5.00003 1.55027 4.93418 1.43306 4.81697C1.31585 4.69976 1.25 4.54079 1.25 4.37503C1.25 4.20927 1.31585 4.0503 1.43306 3.93309C1.55027 3.81588 1.70924 3.75003 1.875 3.75003H6.875V1.87378C6.875 1.70802 6.94085 1.54905 7.05806 1.43184C7.17527 1.31463 7.33424 1.24878 7.5 1.24878H12.5C12.6658 1.24878 12.8247 1.31463 12.9419 1.43184C13.0592 1.54905 13.125 1.70802 13.125 1.87378V3.75003H18.125C18.2908 3.75003 18.4497 3.81588 18.5669 3.93309C18.6842 4.0503 18.75 4.20927 18.75 4.37503C18.75 4.54079 18.6842 4.69976 18.5669 4.81697C18.4497 4.93418 18.2908 5.00003 18.125 5.00003H16.875V18.125C16.875 18.2908 16.8092 18.4498 16.6919 18.567C16.5747 18.6842 16.4158 18.75 16.25 18.75H3.75C3.58424 18.75 3.42527 18.6842 3.30806 18.567C3.19085 18.4498 3.125 18.2908 3.125 18.125V5.00003ZM11.875 3.75003V2.50003H8.125V3.75003H11.875ZM4.375 17.5H15.625V5.00003H4.375V17.5ZM8.125 15C7.95924 15 7.80027 14.9342 7.68306 14.817C7.56585 14.6998 7.5 14.5408 7.5 14.375V8.12503C7.5 7.95927 7.56585 7.8003 7.68306 7.68309C7.80027 7.56588 7.95924 7.50003 8.125 7.50003C8.29076 7.50003 8.44973 7.56588 8.56694 7.68309C8.68415 7.8003 8.75 7.95927 8.75 8.12503V14.375C8.75 14.5408 8.68415 14.6998 8.56694 14.817C8.44973 14.9342 8.29076 15 8.125 15ZM11.875 15C11.7092 15 11.5503 14.9342 11.4331 14.817C11.3158 14.6998 11.25 14.5408 11.25 14.375V8.12503C11.25 7.95927 11.3158 7.8003 11.4331 7.68309C11.5503 7.56588 11.7092 7.50003 11.875 7.50003C12.0408 7.50003 12.1997 7.56588 12.3169 7.68309C12.4342 7.8003 12.5 7.95927 12.5 8.12503V14.375C12.5 14.5408 12.4342 14.6998 12.3169 14.817C12.1997 14.9342 12.0408 15 11.875 15Z" fill="#72768B"/>
</svg>
