<svg width="27" height="27" viewBox="0 0 27 27" fill="none" xmlns="http://www.w3.org/2000/svg">
<path d="M13.5 0C6.04463 0 0 6.04463 0 13.5C0 20.9554 6.04463 27 13.5 27C20.9554 27 27 20.9554 27 13.5C27 6.04463 20.9554 0 13.5 0ZM20.1307 9.24862L17.9145 19.6886C17.7514 20.4289 17.3104 20.6089 16.695 20.2601L13.32 17.7739L11.6932 19.3421C11.6135 19.4453 11.5113 19.5289 11.3943 19.5864C11.2773 19.6439 11.1486 19.6739 11.0182 19.674H11.0126L11.2522 16.2383L17.5072 10.5885C17.7773 10.3489 17.4465 10.2128 17.0876 10.4524L9.36 15.3191L6.03 14.2796C5.31 14.0512 5.28975 13.5596 6.18187 13.2064L19.1936 8.19112C19.7989 7.97062 20.3254 8.33512 20.1296 9.24975L20.1307 9.24862Z" fill="#F8F8F8"/>
</svg>
