<svg width="40" height="40" viewBox="0 0 40 40" fill="none" xmlns="http://www.w3.org/2000/svg">
<g clip-path="url(#clip0_2428_5507)">
<path d="M13.9344 1.31562C9.9378 2.70208 6.49112 5.33364 4.10064 8.82375C1.71016 12.3139 0.501892 16.4786 0.653301 20.7061C0.80471 24.9337 2.30782 29.0013 4.94185 32.3115C7.57587 35.6216 11.202 37.9999 15.2875 39.0969C18.5998 39.9515 22.0701 39.9891 25.4 39.2062C28.4167 38.5286 31.2056 37.0793 33.4938 35C35.8753 32.7698 37.6039 29.9327 38.4938 26.7937C39.461 23.3802 39.6332 19.7904 38.9969 16.3H20.3969V24.0156H31.1688C30.9535 25.2462 30.4922 26.4207 29.8124 27.4688C29.1326 28.517 28.2484 29.4172 27.2125 30.1156C25.8972 30.9857 24.4144 31.5712 22.8594 31.8344C21.2999 32.1244 19.7002 32.1244 18.1407 31.8344C16.56 31.5076 15.0647 30.8552 13.75 29.9187C11.638 28.4237 10.0522 26.2998 9.21879 23.85C8.37134 21.3544 8.37134 18.6488 9.21879 16.1531C9.812 14.4038 10.7926 12.811 12.0875 11.4937C13.5694 9.95858 15.4455 8.86123 17.5099 8.32211C19.5744 7.78298 21.7474 7.8229 23.7907 8.43749C25.3868 8.92747 26.8464 9.78355 28.0532 10.9375C29.2678 9.72916 30.4803 8.5177 31.6907 7.30312C32.3157 6.64999 32.9969 6.02812 33.6125 5.35937C31.7706 3.64523 29.6084 2.31142 27.25 1.43437C22.9554 -0.125038 18.2562 -0.166945 13.9344 1.31562Z" fill="white"/>
<path d="M13.9352 1.31563C18.2566 -0.167945 22.9557 -0.12714 27.2508 1.43125C29.6096 2.31426 31.7707 3.6545 33.6102 5.375C32.9852 6.04375 32.3258 6.66875 31.6883 7.31875C30.4758 8.52917 29.2643 9.73542 28.0539 10.9375C26.8472 9.78356 25.3876 8.92748 23.7914 8.4375C21.7488 7.82076 19.5758 7.77853 17.5108 8.31545C15.4458 8.85237 13.5686 9.94769 12.0852 11.4813C10.7903 12.7986 9.80961 14.3913 9.21641 16.1406L2.73828 11.125C5.05706 6.52676 9.07187 3.00945 13.9352 1.31563Z" fill="#E33629"/>
<path d="M1.01835 16.0938C1.36654 14.3681 1.94461 12.697 2.7371 11.125L9.21523 16.1531C8.36777 18.6488 8.36777 21.3544 9.21523 23.85C7.05689 25.5167 4.89752 27.1917 2.7371 28.875C0.753196 24.926 0.14814 20.4266 1.01835 16.0938Z" fill="#F8BD00"/>
<path d="M20.3959 16.2969H38.9959C39.6322 19.7873 39.46 23.3771 38.4928 26.7906C37.6029 29.9296 35.8743 32.7667 33.4928 34.9969C31.4022 33.3656 29.3022 31.7469 27.2115 30.1156C28.248 29.4165 29.1327 28.5153 29.8125 27.466C30.4923 26.4168 30.9533 25.2411 31.1678 24.0094H20.3959C20.3928 21.4406 20.3959 18.8687 20.3959 16.2969Z" fill="#587DBD"/>
<path d="M2.73438 28.875C4.89479 27.2083 7.05417 25.5333 9.2125 23.85C10.0475 26.3006 11.6356 28.4247 13.75 29.9188C15.0688 30.8508 16.5673 31.4979 18.15 31.8188C19.7096 32.1087 21.3092 32.1087 22.8687 31.8188C24.4237 31.5555 25.9065 30.9701 27.2219 30.1C29.3125 31.7313 31.4125 33.35 33.5031 34.9813C31.2153 37.0617 28.4263 38.5121 25.4094 39.1906C22.0794 39.9735 18.6091 39.9359 15.2969 39.0813C12.6772 38.3818 10.2302 37.1487 8.10938 35.4594C5.86457 33.6772 4.03111 31.4312 2.73438 28.875Z" fill="#319F43"/>
</g>
<defs>
<clipPath id="clip0_2428_5507">
<rect width="40" height="40" fill="white"/>
</clipPath>
</defs>
</svg>
