<svg width="36" height="36" viewBox="0 0 36 36" fill="none" xmlns="http://www.w3.org/2000/svg">
<circle cx="18" cy="18" r="18" fill="#E8ECF2"/>
<path d="M21.3683 12.4L23.6003 14.632M15.6522 14.0873H13.3043C13.0968 14.0873 12.8977 14.1697 12.7509 14.3165C12.6042 14.4632 12.5217 14.6623 12.5217 14.8699V22.696C12.5217 22.9035 12.6042 23.1026 12.7509 23.2493C12.8977 23.3961 13.0968 23.4786 13.3043 23.4786H21.913C22.1206 23.4786 22.3197 23.3961 22.4664 23.2493C22.6132 23.1026 22.6956 22.9035 22.6956 22.696V19.1742M24.5809 11.4186C24.7276 11.5652 24.8439 11.7392 24.9233 11.9307C25.0026 12.1223 25.0435 12.3276 25.0435 12.535C25.0435 12.7423 25.0026 12.9476 24.9233 13.1392C24.8439 13.3307 24.7276 13.5048 24.5809 13.6513L19.2248 19.0075L16.4348 19.5655L16.9928 16.7755L22.3489 11.4193C22.4954 11.2726 22.6694 11.1562 22.8609 11.0768C23.0524 10.9974 23.2576 10.9565 23.4649 10.9565C23.6723 10.9565 23.8775 10.9974 24.069 11.0768C24.2605 11.1562 24.4345 11.2726 24.5809 11.4193V11.4186Z" stroke="#72768B" stroke-linecap="round" stroke-linejoin="round"/>
</svg>
