<svg width="24" height="24" viewBox="0 0 24 24" fill="none" xmlns="http://www.w3.org/2000/svg">
<path d="M9 4.50002H8C5.643 4.50002 4.464 4.50002 3.732 5.23202C3 5.96402 3 7.14302 3 9.50002V14.5C3 16.857 3 18.035 3.732 18.768C4.464 19.501 5.643 19.5 8 19.5H9M9 6.47602C9 4.18302 9 3.03602 9.707 2.40902C10.414 1.78202 11.495 1.97002 13.657 2.34702L15.987 2.75402C18.381 3.17102 19.578 3.38002 20.289 4.25802C21 5.13702 21 6.40702 21 8.94802V15.053C21 17.593 21 18.863 20.29 19.742C19.578 20.62 18.38 20.829 15.986 21.247L13.658 21.653C11.496 22.03 10.415 22.218 9.708 21.591C9.001 20.964 9 19.817 9 17.524V6.47602Z" stroke="#E30016" stroke-width="1.5"/>
<path d="M12 11V13" stroke="#E30016" stroke-width="1.5" stroke-linecap="round"/>
</svg>
