<svg width="20" height="21" viewBox="0 0 20 21" fill="none" xmlns="http://www.w3.org/2000/svg">
<path d="M16.291 9.85422C15.9118 8.9994 15.3606 8.23215 14.6719 7.60047L14.1035 7.07812C14.0842 7.06087 14.061 7.04863 14.0359 7.04247C14.0107 7.03631 13.9845 7.03642 13.9594 7.0428C13.9344 7.04917 13.9112 7.06161 13.8921 7.07903C13.8729 7.09644 13.8584 7.1183 13.8496 7.14268L13.5957 7.87241C13.4375 8.3302 13.1465 8.79778 12.7344 9.25753C12.707 9.28687 12.6758 9.2947 12.6543 9.29665C12.6328 9.29861 12.5996 9.2947 12.5703 9.26731C12.543 9.24383 12.5293 9.20862 12.5312 9.1734C12.6035 7.99566 12.252 6.66728 11.4824 5.22151C10.8457 4.0203 9.96094 3.08319 8.85547 2.42976L8.04883 1.95436C7.94336 1.89175 7.80859 1.97392 7.81445 2.09717L7.85742 3.03624C7.88672 3.67793 7.8125 4.24528 7.63672 4.71677C7.42188 5.2939 7.11328 5.82995 6.71875 6.31122C6.44419 6.64569 6.13299 6.94822 5.79102 7.21311C4.96739 7.8473 4.29768 8.65992 3.83203 9.59011C3.36753 10.5284 3.12557 11.5615 3.125 12.6088C3.125 13.5322 3.30664 14.4263 3.66602 15.2695C4.01302 16.0813 4.51379 16.8181 5.14063 17.4391C5.77344 18.0652 6.50781 18.5582 7.32617 18.9005C8.17383 19.2566 9.07227 19.4366 10 19.4366C10.9277 19.4366 11.8262 19.2566 12.6738 18.9025C13.4902 18.5621 14.2325 18.0657 14.8594 17.4411C15.4922 16.815 15.9883 16.0833 16.334 15.2714C16.6928 14.4305 16.8769 13.5253 16.875 12.6108C16.875 11.656 16.6797 10.7287 16.291 9.85422ZM13.9258 16.4922C12.877 17.533 11.4844 18.1043 10 18.1043C8.51562 18.1043 7.12305 17.533 6.07422 16.4922C5.0293 15.4534 4.45312 14.0761 4.45312 12.6108C4.45312 11.7597 4.64453 10.9439 5.02148 10.1849C5.38867 9.44338 5.93555 8.78017 6.59961 8.26955C7.02312 7.94517 7.40725 7.57222 7.74414 7.15833C8.23242 6.56163 8.61523 5.89646 8.88086 5.18239C8.98982 4.88783 9.06899 4.58306 9.11719 4.27267C9.58789 4.70699 9.98242 5.2313 10.3125 5.8456C10.9648 7.07029 11.2656 8.16 11.207 9.08732C11.193 9.30572 11.2286 9.52446 11.3112 9.7271C11.3937 9.92973 11.5211 10.111 11.6836 10.2572C11.8245 10.3847 11.9892 10.4828 12.1682 10.546C12.3473 10.6091 12.5371 10.636 12.7266 10.625C13.1113 10.6055 13.4648 10.4353 13.7227 10.1477C13.9824 9.85618 14.207 9.55881 14.3945 9.25557C14.668 9.60576 14.8965 9.98726 15.0781 10.3981C15.3887 11.0985 15.5469 11.8439 15.5469 12.6108C15.5469 14.0761 14.9707 15.4553 13.9258 16.4922Z" fill="#F8F8F8"/>
</svg>
