<svg width="21" height="20" viewBox="0 0 21 20" fill="none" xmlns="http://www.w3.org/2000/svg">
<g clip-path="url(#clip0_1045_1519)">
<path d="M18.9176 3.45361H2.92625C1.83535 3.45361 0.947937 4.3433 0.947937 5.43709V14.5629C0.947937 15.6566 1.83535 16.5463 2.92625 16.5463H18.9175C20.0084 16.5463 20.8958 15.6566 20.8958 14.5629V5.43709C20.8959 4.3433 20.0085 3.45361 18.9176 3.45361ZM19.577 5.43709V14.5629C19.577 14.6672 19.5477 14.7624 19.5045 14.8502L14.8424 10.1756L19.5757 5.42996C19.5757 5.43259 19.577 5.4345 19.577 5.43709ZM2.26681 14.5628V5.43709C2.26681 5.4345 2.26815 5.43263 2.26815 5.43L7.00139 10.1756L2.33896 14.8502C2.29612 14.7624 2.26681 14.6672 2.26681 14.5628ZM11.1254 12.0326C11.0166 12.1416 10.8272 12.1416 10.7184 12.0326L3.48103 4.77593H18.3631L11.1254 12.0326ZM7.93387 11.1106L9.78591 12.9675C10.0896 13.2719 10.493 13.4394 10.9219 13.4394C11.3508 13.4394 11.7543 13.2719 12.0579 12.9675L13.91 11.1106L18.0124 15.224H3.83109L7.93387 11.1106Z" fill="#09111A"/>
</g>
<defs>
<clipPath id="clip0_1045_1519">
<rect width="19.9479" height="20" fill="white" transform="translate(0.947937)"/>
</clipPath>
</defs>
</svg>
