<svg width="21" height="20" viewBox="0 0 21 20" fill="none" xmlns="http://www.w3.org/2000/svg">
<path d="M16.2205 6.875H15.9088V6.25C15.9088 3.49375 13.6709 1.25 10.9218 1.25C8.17274 1.25 5.93483 3.49375 5.93483 6.25V6.875H5.62315C3.90576 6.875 2.50629 8.27812 2.50629 10V15.625C2.50629 17.3469 3.90576 18.75 5.62315 18.75H16.2205C17.9379 18.75 19.3373 17.3469 19.3373 15.625V10C19.3373 8.27812 17.9379 6.875 16.2205 6.875ZM7.18158 6.25C7.18158 4.18125 8.85845 2.5 10.9218 2.5C12.9852 2.5 14.662 4.18125 14.662 6.25V6.875H7.18158V6.25ZM18.0906 15.625C18.0906 16.6594 17.2522 17.5 16.2205 17.5H5.62315C4.59147 17.5 3.75303 16.6594 3.75303 15.625V10C3.75303 8.96562 4.59147 8.125 5.62315 8.125H16.2205C17.2522 8.125 18.0906 8.96562 18.0906 10V15.625Z" fill="#09111A"/>
<path d="M10.9218 13.75C11.4382 13.75 11.8569 13.3303 11.8569 12.8125C11.8569 12.2947 11.4382 11.875 10.9218 11.875C10.4054 11.875 9.98676 12.2947 9.98676 12.8125C9.98676 13.3303 10.4054 13.75 10.9218 13.75Z" fill="#09111A"/>
<path d="M14.662 13.75C15.1785 13.75 15.5971 13.3303 15.5971 12.8125C15.5971 12.2947 15.1785 11.875 14.662 11.875C14.1456 11.875 13.727 12.2947 13.727 12.8125C13.727 13.3303 14.1456 13.75 14.662 13.75Z" fill="#09111A"/>
<path d="M7.18158 13.75C7.698 13.75 8.11664 13.3303 8.11664 12.8125C8.11664 12.2947 7.698 11.875 7.18158 11.875C6.66516 11.875 6.24652 12.2947 6.24652 12.8125C6.24652 13.3303 6.66516 13.75 7.18158 13.75Z" fill="#09111A"/>
</svg>
