<svg width="30" height="30" viewBox="0 0 30 30" fill="none" xmlns="http://www.w3.org/2000/svg">
<circle cx="15" cy="15" r="15" fill="#1B67CA"/>
<path d="M16.875 9C17.4569 9.00132 18.0319 9.12574 18.5622 9.36509C19.0926 9.60444 19.5663 9.9533 19.9522 10.3888C20.3381 10.8242 20.6275 11.3364 20.8014 11.8917C20.9753 12.4469 21.0298 13.0327 20.9612 13.6105C20.8926 14.1883 20.7025 14.745 20.4034 15.2442C20.1043 15.7433 19.703 16.1734 19.2258 16.5064C18.7487 16.8394 18.2064 17.0676 17.6348 17.1761C17.0631 17.2846 16.475 17.271 15.909 17.136L15.21 17.835C15.1046 17.9405 14.9616 17.9999 14.8125 18H14.25V18.5625C14.2499 18.7116 14.1905 18.8546 14.085 18.96L13.71 19.335C13.6046 19.4405 13.4616 19.4999 13.3125 19.5H12.75V20.0625C12.7499 20.2116 12.6905 20.3546 12.585 20.46L12.21 20.835C12.1046 20.9405 11.9616 20.9999 11.8125 21H10.3125C9.9644 21 9.63056 20.8617 9.38442 20.6156C9.13828 20.3694 9 20.0356 9 19.6875V18.1875C9 18.0382 9.05925 17.8958 9.165 17.79L12.864 14.091C12.7179 13.4844 12.7113 12.8526 12.8447 12.2431C12.9781 11.6336 13.248 11.0623 13.6341 10.5722C14.0202 10.0821 14.5125 9.68597 15.0739 9.41365C15.6352 9.14133 16.2511 8.99989 16.875 9ZM13.875 13.125C13.8743 13.4482 13.9268 13.77 14.0288 14.0767C14.0619 14.1759 14.0667 14.2823 14.0427 14.384C14.0188 14.4858 13.9669 14.5788 13.893 14.6528L10.125 18.42V19.6875C10.125 19.791 10.209 19.875 10.3125 19.875H11.58L11.625 19.83V18.9375C11.625 18.7883 11.6843 18.6452 11.7898 18.5398C11.8952 18.4343 12.0383 18.375 12.1875 18.375H13.08L13.125 18.33V17.4375C13.125 17.2883 13.1843 17.1452 13.2898 17.0398C13.3952 16.9343 13.5383 16.875 13.6875 16.875H14.58L15.3473 16.1063C15.4212 16.0325 15.5143 15.9808 15.6161 15.9569C15.7178 15.9331 15.8242 15.938 15.9233 15.9713C16.5251 16.1726 17.1752 16.1779 17.7802 15.9864C18.3853 15.7949 18.914 15.4165 19.2904 14.9056C19.6667 14.3946 19.8714 13.7775 19.875 13.1429C19.8785 12.5084 19.6807 11.889 19.31 11.3739C18.9394 10.8588 18.4149 10.4745 17.812 10.2763C17.2092 10.0781 16.559 10.0762 15.955 10.2708C15.351 10.4654 14.8242 10.8465 14.4505 11.3594C14.0767 11.8722 13.8753 12.4904 13.875 13.125ZM17.25 13.5C17.0511 13.5 16.8603 13.421 16.7197 13.2803C16.579 13.1397 16.5 12.9489 16.5 12.75C16.5 12.5511 16.579 12.3603 16.7197 12.2197C16.8603 12.079 17.0511 12 17.25 12C17.4489 12 17.6397 12.079 17.7803 12.2197C17.921 12.3603 18 12.5511 18 12.75C18 12.9489 17.921 13.1397 17.7803 13.2803C17.6397 13.421 17.4489 13.5 17.25 13.5Z" fill="white"/>
</svg>
