<svg width="51" height="51" viewBox="0 0 51 51" fill="none" xmlns="http://www.w3.org/2000/svg">
<path d="M11.1562 10.625C9.3246 10.625 7.56797 11.3526 6.27279 12.6478C4.97762 13.943 4.25 15.6996 4.25 17.5312V20.1875H46.75V17.5312C46.75 16.6243 46.5714 15.7262 46.2243 14.8883C45.8772 14.0504 45.3685 13.2891 44.7272 12.6478C44.0859 12.0065 43.3246 11.4978 42.4867 11.1507C41.6488 10.8036 40.7507 10.625 39.8438 10.625H11.1562ZM46.75 23.375H4.25V33.4688C4.25 35.3004 4.97762 37.057 6.27279 38.3522C7.56797 39.6474 9.3246 40.375 11.1562 40.375H39.8438C40.7507 40.375 41.6488 40.1964 42.4867 39.8493C43.3246 39.5022 44.0859 38.9935 44.7272 38.3522C45.3685 37.7109 45.8772 36.9496 46.2243 36.1117C46.5714 35.2738 46.75 34.3757 46.75 33.4688V23.375ZM33.4688 30.8125H38.7812C39.2039 30.8125 39.6093 30.9804 39.9082 31.2793C40.2071 31.5782 40.375 31.9836 40.375 32.4062C40.375 32.8289 40.2071 33.2343 39.9082 33.5332C39.6093 33.8321 39.2039 34 38.7812 34H33.4688C33.0461 34 32.6407 33.8321 32.3418 33.5332C32.0429 33.2343 31.875 32.8289 31.875 32.4062C31.875 31.9836 32.0429 31.5782 32.3418 31.2793C32.6407 30.9804 33.0461 30.8125 33.4688 30.8125Z" fill="#111827"/>
</svg>
