<svg width="24" height="24" viewBox="0 0 24 24" fill="none" xmlns="http://www.w3.org/2000/svg">
<g clip-path="url(#clip0_287_9262)">
<path d="M20.23 14.26L17.69 13.97C17.3914 13.9349 17.0886 13.968 16.8046 14.0667C16.5206 14.1654 16.2626 14.3273 16.05 14.54L14.21 16.38C11.3712 14.9362 9.06382 12.6288 7.62004 9.79001L9.47004 7.94001C9.90004 7.51001 10.11 6.91001 10.04 6.30001L9.75004 3.78001C9.69335 3.29219 9.45923 2.84225 9.09228 2.51586C8.72532 2.18947 8.25115 2.00943 7.76004 2.01001H6.03004C4.90004 2.01001 3.96004 2.95001 4.03004 4.08001C4.56004 12.62 11.39 19.44 19.92 19.97C21.05 20.04 21.99 19.1 21.99 17.97V16.24C22 15.23 21.24 14.38 20.23 14.26Z" fill="#1B67CA"/>
</g>
<defs>
<clipPath id="clip0_287_9262">
<rect width="24" height="24" fill="white"/>
</clipPath>
</defs>
</svg>
