<svg width="21" height="20" viewBox="0 0 21 20" fill="none" xmlns="http://www.w3.org/2000/svg">
<g clip-path="url(#clip0_1045_2052)">
<path d="M16.3098 12.2985L15.4546 12.7278C15.4021 12.754 15.3541 12.7891 15.3126 12.8307L13.6634 14.4842C13.0561 15.0931 12.1419 15.2737 11.349 14.9419C10.9034 14.7536 10.5386 14.4218 10.2491 14.0341C9.24651 12.6927 8.05819 11.5013 6.71916 10.4971C6.33034 10.2037 6.00049 9.83463 5.81045 9.38675C5.46968 8.57532 5.65317 7.63686 6.27463 7.01378L7.85505 5.42924C7.9031 5.38106 7.94133 5.32412 7.96863 5.2617L8.38258 4.31448C8.47432 4.10861 8.42954 3.8677 8.27008 3.70782L4.73136 0.159859C4.56534 -0.00658898 4.31086 -0.0482009 4.10116 0.0569239L2.67584 0.771992C2.57863 0.821269 2.49563 0.897923 2.44102 0.993192C1.98229 1.78929 1.57709 2.62044 1.24615 3.48991C0.866067 4.4875 0.874804 5.59569 1.21885 6.60642C3.37375 12.9314 8.47214 17.88 14.8866 19.8029C15.7735 20.069 16.7215 20.0712 17.6007 19.7799C18.3544 19.5291 19.0828 19.2236 19.7873 18.8754C19.9053 18.8173 19.9992 18.7177 20.0516 18.5972L20.8369 16.8013C20.9276 16.5944 20.8817 16.3535 20.7233 16.1947L16.94 12.4014C16.7739 12.235 16.5205 12.1934 16.3098 12.2985Z" fill="#09111A"/>
</g>
<defs>
<clipPath id="clip0_1045_2052">
<rect width="19.9479" height="20" fill="white" transform="translate(0.947937)"/>
</clipPath>
</defs>
</svg>
