<svg width="30" height="30" viewBox="0 0 30 30" fill="none" xmlns="http://www.w3.org/2000/svg">
<circle cx="15" cy="15" r="15" fill="#1B67CA"/>
<path d="M18.8206 16.6423L18.2098 16.9489C18.1723 16.9676 18.138 16.9927 18.1084 17.0224L16.9304 18.2035C16.4966 18.6384 15.8436 18.7674 15.2772 18.5304C14.9589 18.3959 14.6984 18.1589 14.4916 17.882C13.7755 16.9238 12.9267 16.0728 11.9702 15.3556C11.6925 15.1459 11.4569 14.8823 11.3211 14.5624C11.0777 13.9828 11.2088 13.3125 11.6527 12.8675L12.7816 11.7356C12.8159 11.7012 12.8432 11.6606 12.8627 11.616L13.1584 10.9394C13.2239 10.7923 13.1919 10.6203 13.078 10.5061L10.5504 7.9718C10.4318 7.85291 10.25 7.82318 10.1002 7.89827L9.08213 8.40904C9.0127 8.44423 8.95341 8.49899 8.9144 8.56704C8.58674 9.13568 8.29731 9.72935 8.06092 10.3504C7.78943 11.063 7.79568 11.8545 8.04142 12.5765C9.58064 17.0944 13.2223 20.629 17.8041 22.0025C18.4376 22.1926 19.1148 22.1942 19.7428 21.9861C20.2811 21.807 20.8014 21.5887 21.3046 21.34C21.3889 21.2986 21.456 21.2274 21.4934 21.1413L22.0543 19.8586C22.1191 19.7107 22.0863 19.5387 21.9732 19.4252L19.2708 16.7158C19.1522 16.5969 18.9712 16.5672 18.8206 16.6423Z" fill="white"/>
</svg>
