<svg width="30" height="30" viewBox="0 0 30 30" fill="none" xmlns="http://www.w3.org/2000/svg">
<circle cx="15" cy="15" r="15" fill="#1B67CA"/>
<g clip-path="url(#clip0_1045_1906)">
<path d="M10.3584 10.0151H14.1592V10.8354H10.3584V10.0151Z" fill="white"/>
<path d="M10.3584 19.5391H14.1592V20.3594H10.3584V19.5391Z" fill="white"/>
<path d="M10.3584 17.8984H11.1787V18.7188H10.3584V17.8984Z" fill="white"/>
<path d="M10.3584 16.2578H14.1592V17.0781H10.3584V16.2578Z" fill="white"/>
<path d="M10.3584 14.6172H14.1592V15.4375H10.3584V14.6172Z" fill="white"/>
<path d="M10.3584 12.9766H15.1982V13.7969H10.3584V12.9766Z" fill="white"/>
<path d="M11.999 17.8984H14.1592V18.7188H11.999V17.8984Z" fill="white"/>
<path d="M20.4072 15.7109V14.5625C20.4072 13.557 19.6893 12.7162 18.7393 12.5252V11.084L15.6552 8H8.52637V22H21.4736V15.7109H20.4072ZM19.5869 14.5625V15.7109H18.7393V13.3737C19.232 13.5442 19.5869 14.0125 19.5869 14.5625ZM15.8955 9.40036L17.3389 10.8438H15.8955V9.40036ZM17.9189 15.7109H17.0713V14.5625C17.0713 14.0125 17.4262 13.5442 17.9189 13.3737V15.7109ZM9.34668 21.1797V8.82031H15.0752V11.6641H17.9189V12.5252C16.9689 12.7162 16.251 13.557 16.251 14.5625V15.7109H15.1846V21.1797H9.34668ZM20.6533 21.1797H16.0049V16.5312H20.6533V21.1797Z" fill="white"/>
<path d="M17.9189 19.742V20.3594H18.7393V19.742C19.2167 19.5726 19.5596 19.1167 19.5596 18.582C19.5596 17.9036 19.0076 17.3516 18.3291 17.3516C17.6506 17.3516 17.0986 17.9036 17.0986 18.582C17.0986 19.1167 17.4416 19.5726 17.9189 19.742ZM18.3291 18.1719C18.5553 18.1719 18.7393 18.3559 18.7393 18.582C18.7393 18.8082 18.5553 18.9922 18.3291 18.9922C18.1029 18.9922 17.9189 18.8082 17.9189 18.582C17.9189 18.3559 18.1029 18.1719 18.3291 18.1719Z" fill="white"/>
</g>
<defs>
<clipPath id="clip0_1045_1906">
<rect width="14" height="14" fill="white" transform="translate(8 8)"/>
</clipPath>
</defs>
</svg>
