<svg width="22" height="22" viewBox="0 0 22 22" fill="none" xmlns="http://www.w3.org/2000/svg">
<path d="M12.905 1.375C13.0505 1.375 13.1923 1.42121 13.31 1.50695C13.4276 1.59269 13.5149 1.71355 13.5595 1.85212L14.3157 4.202C14.6334 4.35737 14.9372 4.532 15.2274 4.72862L17.6419 4.20888C17.7842 4.17848 17.9326 4.19406 18.0655 4.25336C18.1984 4.31267 18.3091 4.41264 18.3816 4.53888L20.2874 7.8375C20.3601 7.96366 20.391 8.10968 20.3754 8.2545C20.3598 8.39931 20.2987 8.53544 20.2007 8.64325L18.5439 10.472C18.568 10.8227 18.568 11.1746 18.5439 11.5252L20.2007 13.3567C20.2987 13.4646 20.3598 13.6007 20.3754 13.7455C20.391 13.8903 20.3601 14.0363 20.2874 14.1625L18.3816 17.4625C18.3089 17.5885 18.1982 17.6882 18.0652 17.7472C17.9323 17.8063 17.7841 17.8216 17.6419 17.7911L15.2274 17.2714C14.9386 17.4666 14.6334 17.6426 14.3171 17.798L13.5595 20.1479C13.5149 20.2864 13.4276 20.4073 13.31 20.4931C13.1923 20.5788 13.0505 20.625 12.905 20.625H9.09348C8.94793 20.625 8.80613 20.5788 8.68851 20.4931C8.57089 20.4073 8.48352 20.2864 8.43898 20.1479L7.68411 17.7994C7.36735 17.6444 7.06181 17.4676 6.76973 17.27L4.35661 17.7911C4.21425 17.8215 4.06591 17.8059 3.93297 17.7466C3.80003 17.6873 3.68935 17.5874 3.61686 17.4611L1.71111 14.1625C1.63834 14.0363 1.60751 13.8903 1.62308 13.7455C1.63865 13.6007 1.69981 13.4646 1.79773 13.3567L3.45461 11.5252C3.4306 11.1755 3.4306 10.8245 3.45461 10.4748L1.79773 8.64325C1.69981 8.53544 1.63865 8.39931 1.62308 8.2545C1.60751 8.10968 1.63834 7.96366 1.71111 7.8375L3.61686 4.5375C3.68955 4.41151 3.80032 4.31183 3.93324 4.25278C4.06617 4.19373 4.2144 4.17836 4.35661 4.20888L6.76973 4.73C7.06123 4.53338 7.36648 4.356 7.68411 4.20063L8.44036 1.85212C8.48475 1.714 8.57171 1.59346 8.68878 1.50776C8.80584 1.42205 8.94702 1.37559 9.09211 1.375H12.9036H12.905ZM12.4017 2.75H9.59673L8.81573 5.17963L8.28911 5.43675C8.03022 5.56343 7.7803 5.70769 7.54111 5.8685L7.05436 6.1985L4.55736 5.6595L3.15486 8.0905L4.86673 9.98525L4.82548 10.5682C4.80572 10.8557 4.80572 11.1443 4.82548 11.4318L4.86673 12.0147L3.15211 13.9095L4.55598 16.3405L7.05298 15.8029L7.53973 16.1315C7.77892 16.2923 8.02884 16.4366 8.28773 16.5632L8.81436 16.8204L9.59673 19.25H12.4045L13.1882 16.819L13.7135 16.5632C13.9721 16.4369 14.2216 16.2926 14.4601 16.1315L14.9455 15.8029L17.4439 16.3405L18.8464 13.9095L17.1331 12.0147L17.1744 11.4318C17.1942 11.1438 17.1942 10.8548 17.1744 10.5669L17.1331 9.98388L18.8477 8.0905L17.4439 5.6595L14.9455 6.19575L14.4601 5.8685C14.2216 5.70739 13.9721 5.56313 13.7135 5.43675L13.1882 5.181L12.4031 2.75H12.4017ZM10.9992 6.875C12.0933 6.875 13.1425 7.3096 13.916 8.08318C14.6896 8.85677 15.1242 9.90598 15.1242 11C15.1242 12.094 14.6896 13.1432 13.916 13.9168C13.1425 14.6904 12.0933 15.125 10.9992 15.125C9.90522 15.125 8.85601 14.6904 8.08242 13.9168C7.30883 13.1432 6.87423 12.094 6.87423 11C6.87423 9.90598 7.30883 8.85677 8.08242 8.08318C8.85601 7.3096 9.90522 6.875 10.9992 6.875ZM10.9992 8.25C10.2699 8.25 9.57041 8.53973 9.05469 9.05546C8.53896 9.57118 8.24923 10.2707 8.24923 11C8.24923 11.7293 8.53896 12.4288 9.05469 12.9445C9.57041 13.4603 10.2699 13.75 10.9992 13.75C11.7286 13.75 12.4281 13.4603 12.9438 12.9445C13.4595 12.4288 13.7492 11.7293 13.7492 11C13.7492 10.2707 13.4595 9.57118 12.9438 9.05546C12.4281 8.53973 11.7286 8.25 10.9992 8.25Z" fill="#111827"/>
</svg>
